<?xml version="1.0" standalone="no"?>
<!DOCTYPE svg PUBLIC "-//W3C//DTD SVG 20010904//EN"
 "http://www.w3.org/TR/2001/REC-SVG-20010904/DTD/svg10.dtd">
<svg version="1.0" xmlns="http://www.w3.org/2000/svg"
 width="2265.000000pt" height="1500.000000pt" viewBox="0 0 2265.000000 1500.000000"
 preserveAspectRatio="xMidYMid meet">
<metadata>
Created by potrace 1.16, written by Peter Selinger 2001-2019
</metadata>
<g transform="translate(0.000000,1500.000000) scale(0.100000,-0.100000)"
fill="#000000" stroke="none">
<path d="M7397 13228 c-21 -29 -26 -47 -30 -136 -5 -94 -4 -105 15 -124 11
-11 18 -21 16 -23 -2 -2 -25 -6 -52 -10 -27 -3 -55 -10 -61 -15 -12 -10 -21
-101 -31 -337 l-6 -132 33 -3 34 -3 -4 -145 c-2 -80 0 -142 4 -138 10 9 12 47
15 193 1 66 5 112 8 102 12 -29 -1 -571 -18 -747 -5 -52 -12 -214 -16 -360 -3
-146 -8 -301 -10 -345 -10 -238 -28 -787 -27 -828 1 -27 6 -54 12 -61 6 -7 8
-16 4 -20 -11 -11 -12 -25 -18 -351 -8 -489 -19 -827 -30 -1007 -2 -46 0 -56
11 -51 10 4 14 -3 14 -20 0 -14 5 -38 11 -54 6 -15 14 -46 19 -68 4 -22 11
-48 15 -57 6 -14 2 -18 -18 -18 -14 0 -29 5 -32 10 -3 6 4 10 17 10 21 1 20 3
-14 35 -37 34 -71 45 -83 25 -3 -5 -1 -10 4 -10 7 0 11 -36 12 -97 0 -63 3
-89 8 -73 5 14 7 52 6 84 -2 41 1 59 11 63 17 6 40 -7 26 -16 -6 -3 -12 -44
-13 -91 -1 -47 -4 -91 -7 -97 -7 -20 -22 -15 -22 6 0 11 -5 23 -10 26 -25 16
-45 82 -44 147 l1 66 -33 7 c-51 9 -57 30 -6 22 37 -6 40 -5 35 13 -3 11 -10
23 -16 27 -6 4 -7 1 -2 -6 6 -10 3 -11 -13 -2 -36 19 -35 30 4 25 32 -4 35 -2
24 11 -7 8 -8 15 -3 15 6 0 11 52 11 128 3 225 24 522 38 522 21 0 25 -67 20
-368 -3 -176 -1 -266 3 -222 15 137 19 438 13 880 -2 113 -1 234 2 270 11 158
10 328 -2 343 -10 11 -10 26 -2 58 5 24 13 107 16 184 l7 140 -94 -1 c-158 -2
-160 -2 -166 -24 -4 -17 -23 -29 -23 -16 0 29 24 57 60 67 39 12 54 29 26 29
-8 0 -28 8 -44 17 l-29 17 -6 285 -6 286 30 59 c17 32 28 65 25 72 -3 7 0 15
7 17 8 3 4 11 -10 21 -52 39 -56 47 -50 110 7 73 -9 126 -40 137 -15 5 -23 5
-23 -2 0 -6 -4 -8 -10 -4 -29 18 -56 -128 -36 -192 4 -13 2 -24 -6 -29 -13 -8
-69 -17 -98 -15 -28 2 -155 8 -187 10 -21 1 -33 6 -33 15 0 7 -6 19 -14 25 -7
6 -16 41 -19 82 -8 92 -23 117 -71 111 -41 -5 -42 -7 -51 -120 -6 -70 -5 -86
9 -101 16 -17 16 -19 -6 -24 -13 -3 -83 -3 -156 -1 -168 7 -167 6 -175 134 -3
51 -10 97 -15 102 -16 16 -74 10 -92 -8 -15 -15 -25 -190 -11 -198 31 -20 1
-26 -124 -26 -94 0 -135 3 -135 11 0 7 -7 17 -15 23 -9 7 -16 41 -21 101 -9
115 -22 136 -78 120 -51 -15 -59 -36 -54 -157 l4 -97 -83 -6 c-152 -13 -175 6
-183 147 -3 53 -7 98 -10 100 -3 2 -13 10 -23 18 -15 11 -18 11 -15 0 2 -10
-6 -14 -28 -12 -47 5 -54 -13 -57 -140 l-2 -114 -65 1 c-170 4 -180 5 -180 19
0 8 -7 16 -15 20 -10 4 -15 20 -16 53 0 26 -4 71 -8 100 -8 56 -37 101 -55 83
-5 -5 -20 -10 -33 -10 -35 0 -44 -31 -42 -148 l2 -107 -59 3 c-33 1 -75 4 -94
6 -19 2 -40 4 -47 5 -31 3 -50 43 -57 118 -7 90 -24 117 -68 108 -17 -4 -28
-2 -28 4 0 6 -4 11 -10 11 -5 0 -10 -8 -10 -17 0 -14 -2 -15 -9 -5 -20 32 -41
-47 -43 -165 -1 -42 -5 -54 -20 -59 -19 -6 -23 -16 -11 -28 4 -4 6 -25 4 -47
-1 -22 2 -46 8 -53 6 -7 12 -37 14 -68 2 -30 11 -67 20 -81 22 -34 21 -50 -4
-73 -45 -41 -88 -192 -93 -332 -2 -56 0 -102 4 -102 4 0 7 -8 6 -17 -1 -12 9
-19 29 -23 28 -5 30 -9 33 -50 1 -25 -5 -157 -14 -295 -28 -439 -32 -516 -33
-720 -1 -110 -6 -283 -12 -385 -14 -244 -17 -319 -18 -477 l-1 -133 -39 0
c-34 0 -39 -3 -47 -32 -8 -26 -16 -34 -37 -36 -15 -2 -27 -9 -27 -16 0 -20
-30 -25 -187 -32 -125 -6 -143 -5 -143 8 0 10 -13 18 -35 22 -20 4 -33 11 -30
15 3 5 2 22 -1 39 -6 29 -8 30 -55 29 -47 -2 -49 -3 -55 -34 -4 -23 -13 -34
-35 -42 -23 -8 -29 -16 -29 -40 0 -27 -4 -31 -36 -37 -21 -4 -52 -1 -74 6 -25
8 -54 10 -82 5 -43 -7 -98 -8 -104 -2 -2 2 -4 17 -6 35 -2 29 -5 32 -36 32
-32 0 -34 2 -30 30 4 28 2 30 -38 36 -23 3 -47 3 -52 0 -16 -9 -41 4 -36 19 6
14 -41 30 -58 19 -6 -4 -8 -3 -5 3 4 6 -3 13 -15 16 -17 5 -19 9 -9 21 9 11 9
15 -1 19 -7 2 -10 7 -7 11 7 8 123 -49 139 -69 7 -8 24 -15 39 -15 21 0 23 2
11 11 -12 9 -12 10 3 5 10 -3 24 -6 30 -6 8 0 9 -3 1 -8 -6 -4 -3 -14 10 -26
16 -16 18 -17 13 -3 -3 9 -3 25 1 35 5 12 9 4 13 -28 5 -37 6 -31 7 33 2 70 4
79 22 84 20 5 20 5 0 34 -13 17 -20 41 -18 62 3 44 -36 101 -64 94 -11 -3 -21
0 -25 9 -3 8 -9 12 -14 9 -4 -3 -5 -13 -2 -22 4 -11 2 -14 -8 -11 -8 3 -24 1
-36 -3 -17 -6 -23 -5 -23 6 0 8 8 15 18 15 12 0 10 4 -8 13 -21 11 -27 11 -35
-1 -6 -7 -22 -15 -37 -16 -22 -3 -27 2 -32 27 -5 24 -9 28 -18 19 -20 -20 -55
-13 -77 15 l-21 26 -25 -23 c-22 -21 -25 -32 -25 -93 0 -69 0 -69 -25 -65 -14
3 -25 2 -25 -1 0 -3 -27 -4 -61 -3 -58 4 -61 5 -56 28 2 14 0 27 -4 30 -5 3
-9 21 -9 41 0 20 -3 34 -6 30 -3 -3 -18 8 -33 24 l-28 30 -46 -55 c-26 -30
-47 -57 -47 -60 0 -3 11 -6 25 -6 22 0 25 -4 25 -32 l0 -33 -74 0 -74 0 -7 68
c-5 45 -11 67 -20 67 -8 0 -23 12 -35 27 l-21 27 -45 -49 c-34 -38 -51 -50
-75 -51 -26 -1 -33 4 -44 30 l-13 31 -11 -27 c-6 -16 -15 -28 -21 -28 -8 0 -8
6 0 20 9 16 8 20 -6 20 -9 0 -27 12 -40 27 -22 26 -24 26 -42 10 -10 -9 -30
-17 -45 -17 -14 0 -30 -8 -36 -17 -8 -16 -11 -14 -21 12 -7 17 -14 24 -17 17
-3 -6 -9 -10 -14 -6 -5 3 -8 0 -7 -8 2 -7 -8 -14 -21 -16 -19 -3 -22 0 -17 13
5 13 2 16 -10 11 -10 -4 -22 1 -30 11 -11 15 -15 16 -23 4 -7 -11 -9 -11 -13
0 -4 11 -8 12 -20 2 -8 -7 -19 -9 -24 -5 -4 4 -2 -2 6 -12 14 -18 13 -19 -2
-13 -21 7 -20 10 -23 -65 -2 -47 -7 -61 -26 -77 l-24 -20 28 -1 c27 0 27 -1
28 -67 0 -38 0 -116 -1 -174 -1 -62 3 -109 8 -113 6 -3 41 -8 79 -10 90 -5
105 -12 101 -45 l-3 -26 -99 0 c-76 0 -100 3 -104 14 -4 11 3 13 32 8 20 -3
36 -2 36 4 0 5 -7 9 -15 9 -8 0 -15 5 -15 10 0 6 -6 10 -12 10 -7 0 -30 5 -50
11 -33 9 -38 14 -38 39 0 27 -3 30 -34 30 -19 0 -38 5 -41 10 -3 6 -1 10 4 10
17 0 13 40 -4 46 -29 12 -65 -5 -65 -30 0 -18 -7 -25 -28 -29 -15 -3 -31 -1
-37 4 -5 5 -1 9 13 9 26 0 26 7 22 218 l-2 132 28 0 c25 0 27 2 13 15 -11 11
-44 17 -110 21 -94 5 -140 8 -254 18 -33 2 -89 14 -125 26 -35 11 -70 18 -76
16 -7 -3 -30 0 -51 6 -21 7 -42 11 -47 9 -5 -1 -13 4 -17 11 -7 10 -9 8 -9 -5
0 -14 -5 -17 -19 -12 -21 6 -250 8 -334 2 -39 -3 -47 -1 -42 11 4 12 3 13 -10
2 -16 -13 -165 -22 -165 -9 0 4 -16 3 -35 -1 -20 -4 -44 -6 -55 -3 -20 5 -20
-1 -20 -276 l0 -281 58 -2 c65 -1 68 -1 102 6 23 5 23 5 -3 -6 -20 -9 -27 -19
-27 -40 0 -28 0 -28 -65 -28 l-65 0 0 -482 0 -483 56 3 c60 4 124 -4 124 -16
0 -4 -39 -7 -88 -7 l-87 0 -3 -267 -2 -268 25 0 c17 0 23 4 19 14 -8 22 36 27
234 27 106 -1 203 4 229 11 35 8 47 8 53 -1 5 -10 10 -9 21 2 9 9 30 13 57 10
23 -1 42 1 42 6 0 5 16 5 38 0 22 -5 38 -4 40 1 5 14 32 12 32 -1 0 -8 5 -7
15 1 9 7 18 10 22 6 3 -3 0 -6 -7 -6 -7 0 -11 -3 -8 -6 4 -3 16 0 28 6 30 16
377 19 398 4 12 -9 13 -29 7 -118 l-7 -107 -546 2 c-301 1 -580 1 -619 0 l-73
-1 0 -251 0 -251 22 7 c38 11 62 12 96 3 24 -7 41 -5 63 6 22 11 36 13 50 6
20 -11 72 7 63 21 -3 5 12 9 33 9 25 0 33 -3 24 -9 -9 -6 -2 -10 23 -13 39 -4
51 8 14 14 -13 3 12 5 54 5 43 1 82 4 87 7 5 4 12 3 15 -2 6 -11 181 -4 229 9
22 6 71 10 110 9 127 -3 173 0 159 8 -7 5 9 7 35 4 96 -8 122 -8 117 0 -3 4 6
8 20 8 24 0 25 -2 31 -92 8 -120 22 -1835 15 -1868 -7 -35 -30 -37 -31 -3 -1
23 -2 25 -7 8 -9 -27 -25 -28 -41 -3 -12 19 -11 20 8 15 17 -4 21 -1 21 21 0
18 -3 23 -9 14 -6 -10 -14 -5 -32 17 -13 17 -30 31 -38 31 -15 0 -6 14 10 16
22 3 23 6 4 14 -33 14 -45 11 -46 -12 -1 -19 -2 -18 -10 7 -5 17 -14 138 -20
270 -6 132 -13 242 -15 244 -2 2 -5 -65 -5 -150 -1 -85 -5 -140 -8 -124 -5 18
-9 -25 -12 -110 -3 -80 -10 -149 -16 -160 -11 -18 -12 -18 -10 9 2 24 -2 29
-25 31 -14 2 -38 11 -52 20 -14 10 -35 15 -45 12 -15 -4 -22 2 -30 26 -14 37
-14 47 -1 47 6 0 10 -8 10 -17 0 -15 2 -16 10 -3 12 19 13 33 1 26 -11 -7 -21
16 -22 52 -1 23 -3 22 -9 -8 l-7 -35 -3 45 c-3 44 -3 52 5 97 2 13 -1 23 -5
23 -5 0 -10 -10 -13 -22 -3 -22 -4 -22 -12 -4 -5 12 -5 21 2 23 5 2 19 10 29
18 15 12 15 14 2 9 -11 -4 -20 3 -30 22 -19 39 -41 50 -72 36 -34 -15 -43 -65
-22 -126 19 -55 19 -59 6 -51 -17 11 -50 -19 -49 -45 l1 -25 10 28 c5 15 14
27 20 27 6 0 7 -7 4 -16 -3 -9 -6 -22 -6 -30 0 -8 -7 -14 -15 -14 -17 0 -19
-27 -5 -66 8 -19 8 -30 0 -38 -7 -7 -10 -7 -10 1 0 7 -10 13 -22 15 -12 2 -23
10 -26 18 -4 12 -2 13 9 3 26 -25 28 -12 4 23 -14 20 -25 47 -25 58 0 23 -17
46 -33 46 -5 0 -6 -7 -3 -16 3 -8 2 -12 -4 -9 -23 14 -8 -24 21 -53 17 -18 28
-32 24 -32 -6 0 -69 35 -84 47 -2 1 2 21 9 43 12 36 11 42 -5 60 -13 15 -21
17 -31 9 -7 -6 -18 -8 -24 -4 -30 19 -65 -56 -39 -82 8 -8 8 -21 -1 -47 -9
-27 -17 -36 -35 -36 -12 0 -30 -10 -38 -23 l-16 -22 0 26 c-1 14 -6 30 -12 36
-7 7 -13 22 -14 35 -2 13 -6 31 -10 41 -6 13 -2 20 13 24 25 6 37 62 15 70 -8
3 -12 12 -9 20 9 23 -13 53 -39 53 -31 0 -75 -20 -76 -34 0 -6 -3 -35 -5 -64
-4 -57 -31 -106 -77 -143 -53 -41 -65 -96 -44 -214 5 -33 10 -71 10 -85 -1
-15 1 -18 4 -7 5 19 19 22 29 6 4 -6 19 -9 37 -5 23 5 34 1 48 -16 23 -26 24
-19 -3 -131 -15 -63 -22 -125 -23 -197 0 -58 -4 -116 -8 -130 -6 -21 -3 -27
20 -37 15 -7 33 -13 40 -13 7 0 13 -4 13 -10 0 -5 -17 -10 -37 -10 -47 0 -75
-15 -54 -29 18 -12 138 -24 213 -23 37 1 57 -2 55 -9 -1 -6 12 -13 28 -14 17
-2 49 -7 73 -10 23 -4 77 -1 118 6 l76 12 -46 25 c-41 22 -44 26 -28 38 15 11
15 14 -12 35 -28 22 -28 23 -22 98 3 42 8 114 10 161 2 47 7 133 10 191 6 96
4 113 -18 185 -31 97 -31 99 -4 80 12 -9 29 -16 38 -16 13 0 15 -20 16 -127 1
-155 10 -255 31 -347 12 -51 13 -71 5 -74 -7 -2 -12 -8 -12 -14 0 -11 -40 -64
-46 -60 -2 1 -3 -1 -1 -5 1 -5 17 -7 36 -5 27 3 32 0 27 -13 -8 -21 35 -64 73
-71 30 -6 41 -25 41 -75 0 -22 -6 -28 -31 -33 -17 -3 -204 -6 -415 -6 l-384 0
0 -106 0 -105 213 6 c116 3 363 10 547 15 1047 31 1703 38 1769 20 47 -12 51
-22 19 -45 -21 -14 -3 -15 212 -10 129 2 255 6 280 9 25 2 131 7 235 11 581
18 830 23 1100 21 346 -4 430 0 415 19 -8 9 -8 15 -1 20 6 3 104 9 218 12 183
5 213 9 252 27 50 23 64 45 29 41 -47 -5 -267 -9 -396 -7 -96 1 -131 5 -126
13 4 7 8 27 9 45 1 19 5 38 9 42 4 4 130 8 280 10 l272 4 -4 -41 c-4 -36 -2
-41 17 -41 12 0 21 -4 21 -10 0 -5 -8 -7 -17 -4 -10 2 -8 -1 5 -7 12 -7 22
-16 22 -21 0 -5 -10 -6 -22 -2 -13 3 -20 3 -16 -1 4 -4 18 -9 30 -10 13 -2 40
-11 62 -20 32 -14 63 -15 205 -10 307 12 455 16 591 17 74 0 141 5 147 10 18
14 66 1 60 -16 -3 -8 3 -16 15 -19 29 -8 14 -25 -17 -19 -14 2 -25 0 -25 -6 0
-5 46 -15 103 -21 56 -6 125 -16 152 -21 56 -11 215 -27 350 -35 81 -5 130
-10 205 -21 63 -10 220 -13 220 -4 0 10 -66 26 -89 21 -8 -1 -17 2 -20 7 -3 6
-55 13 -116 16 -60 4 -132 8 -160 10 -58 4 -165 23 -173 31 -3 2 -11 0 -19 -7
-10 -8 -20 -8 -36 0 -36 18 -188 51 -246 53 -54 3 -101 17 -101 31 0 4 55 7
123 8 300 2 426 9 449 23 13 8 45 15 71 16 27 1 58 6 71 11 27 10 99 -2 123
-21 10 -8 30 -27 45 -42 20 -20 34 -26 48 -22 11 4 20 2 20 -4 0 -6 3 -10 8
-10 22 4 42 -2 37 -11 -6 -10 -62 -5 -101 10 -12 5 -25 6 -28 3 -3 -4 -6 0 -6
7 0 11 -3 11 -12 2 -18 -18 -32 -14 -17 5 13 15 12 15 -12 0 -24 -16 -28 -16
-58 -1 -24 12 -41 14 -64 8 -46 -14 -46 -34 0 -35 52 -1 65 -3 168 -28 89 -21
242 -41 300 -40 26 0 27 2 10 9 -19 8 -19 9 3 9 19 1 22 -3 17 -18 -5 -17 1
-20 52 -27 32 -3 69 -11 83 -16 18 -7 27 -5 36 6 16 22 47 20 62 -5 8 -12 22
-20 35 -19 12 1 29 1 37 0 22 -3 -59 -19 -102 -19 -21 -1 -38 -6 -38 -12 0 -6
8 -8 18 -5 9 3 24 1 32 -4 20 -12 -228 1 -339 19 -30 5 -66 5 -80 1 -14 -5
-20 -9 -13 -9 6 -1 12 -6 12 -12 0 -6 -11 -8 -27 -5 -16 4 -62 8 -103 11 -41
2 -101 7 -134 10 -41 5 -56 3 -52 -4 4 -6 0 -11 -8 -11 -9 0 -16 8 -16 18 0
12 -2 14 -8 4 -9 -13 -72 -19 -90 -8 -11 6 -261 19 -333 17 -20 -1 -49 6 -65
14 l-29 15 38 0 c20 0 37 -3 37 -7 0 -5 42 -9 93 -10 138 -2 75 12 -108 26
-88 6 -190 14 -227 17 -49 4 -68 3 -68 -6 0 -6 10 -11 23 -10 12 1 59 2 103 1
71 -1 82 -3 87 -20 4 -16 0 -19 -28 -17 -17 2 -37 6 -43 10 -6 3 -12 1 -14 -5
-3 -8 -14 -8 -43 0 -22 6 -66 11 -97 11 -31 0 -60 4 -63 10 -4 6 6 10 22 10
l28 0 -28 15 c-22 11 -33 12 -54 2 l-26 -12 24 -6 c23 -7 23 -7 2 -8 -12 -1
-25 -5 -28 -11 -10 -16 -47 -12 -62 8 -8 9 -12 12 -9 5 5 -8 -8 -11 -44 -10
-68 3 -64 -9 5 -15 31 -3 63 -12 73 -21 10 -9 32 -17 48 -16 24 0 25 2 10 8
-11 4 -15 10 -10 14 14 8 31 -5 35 -28 3 -11 13 -21 24 -23 17 -3 17 -1 5 7
-11 8 -4 11 29 11 28 0 48 -6 55 -16 9 -11 17 -13 36 -5 22 9 23 10 5 11 -12
1 -6 5 15 10 39 9 54 4 46 -16 -4 -10 3 -14 27 -13 27 0 29 2 12 9 -14 6 -15
9 -5 9 9 1 20 -3 25 -8 12 -12 157 -17 174 -6 7 4 18 2 24 -4 6 -6 42 -11 82
-10 48 0 64 3 50 9 -14 6 -16 9 -5 10 8 1 4 6 -10 10 l-25 8 26 1 c27 1 54
-20 42 -32 -3 -4 -1 -7 5 -7 6 0 13 4 17 9 3 6 50 8 105 6 55 -2 102 0 105 5
9 14 288 11 297 -3 5 -9 10 -9 20 1 6 6 23 12 38 11 23 0 23 -1 5 -9 -13 -6
13 -8 70 -5 50 2 94 5 98 5 5 0 5 5 1 12 -5 8 6 9 41 5 26 -4 71 -7 99 -7 34
0 46 -3 37 -9 -11 -7 -4 -12 27 -21 23 -6 42 -12 42 -14 0 -10 -343 -12 -1243
-6 -166 2 -211 -2 -176 -14 8 -3 129 -9 269 -15 140 -5 273 -13 295 -18 38 -9
37 -9 -45 -19 -47 -5 -232 -8 -412 -6 -225 2 -328 0 -328 -7 0 -6 6 -11 13
-12 62 -4 77 -3 77 4 0 4 8 7 18 7 13 0 14 -2 3 -9 -32 -20 49 -26 379 -28
395 -2 382 -1 375 -14 -4 -5 13 -9 39 -9 43 0 71 -16 44 -24 -7 -3 -69 -7
-138 -10 -71 -3 -126 -10 -128 -16 -2 -5 -16 -11 -30 -11 -23 -1 -21 -2 8 -8
47 -8 172 -2 165 9 -9 14 15 22 43 15 l27 -8 -25 -7 c-21 -7 -19 -8 15 -9 22
0 51 2 65 6 l25 7 -25 7 c-23 7 -23 7 7 8 17 1 33 -4 35 -11 3 -8 25 -12 69
-10 76 3 142 19 134 32 -4 6 1 10 9 10 8 0 19 -6 23 -14 7 -12 24 -13 98 -5
50 6 104 14 122 20 17 6 62 12 100 15 37 3 84 7 103 10 79 12 323 16 317 6 -4
-5 -28 -13 -54 -17 -27 -3 -77 -14 -113 -24 -36 -10 -99 -24 -140 -31 -41 -6
-94 -18 -117 -27 -23 -8 -46 -12 -52 -8 -6 3 -11 1 -11 -4 0 -6 -8 -11 -17
-11 -15 0 -15 -2 -4 -9 8 -5 24 -7 35 -6 48 9 274 38 308 40 20 2 41 6 47 10
16 9 75 -5 64 -15 -4 -5 -39 -14 -78 -20 -96 -15 -116 -17 -186 -19 -39 -1
-58 -5 -54 -11 4 -6 15 -8 26 -5 10 4 19 3 19 -2 0 -10 238 -8 330 3 36 4 68
7 72 6 3 -1 12 5 18 13 10 12 10 18 0 30 -10 12 -9 16 6 21 54 17 73 27 68 35
-9 15 16 10 32 -6 14 -13 12 -15 -15 -15 -17 0 -31 -4 -31 -10 0 -5 -7 -10
-15 -10 -8 0 -15 -4 -15 -10 0 -6 30 -10 69 -10 39 0 73 -4 76 -10 3 -5 35
-10 71 -10 36 0 64 -4 64 -10 0 -5 -8 -10 -18 -10 -10 0 -23 -5 -30 -12 -7 -7
-15 -8 -24 -1 -14 10 -42 10 -96 -2 -29 -7 -31 -9 -15 -21 10 -7 25 -13 33
-13 10 0 8 3 -5 10 -14 6 -6 7 25 3 25 -3 47 -6 50 -7 22 -2 133 30 137 40 3
7 17 13 32 13 21 0 23 2 11 11 -12 8 -9 9 13 5 15 -4 27 -2 27 4 0 5 9 10 20
10 11 0 20 6 20 14 0 13 33 29 55 27 13 -1 45 55 45 78 0 44 -92 87 -204 96
-58 4 -96 19 -96 36 0 7 10 9 28 4 66 -17 127 -22 166 -13 42 10 126 5 206
-12 41 -9 203 -22 258 -21 13 1 44 -4 70 -11 26 -6 80 -12 120 -14 41 -1 85
-5 98 -8 17 -5 24 -2 24 9 0 9 -9 15 -25 15 -13 0 -29 8 -34 17 -9 15 -12 16
-20 4 -8 -13 -38 -13 -233 2 -314 25 -431 38 -443 50 -7 6 8 8 43 4 32 -4 50
-2 47 3 -4 6 14 10 42 10 36 0 53 5 65 19 16 19 16 20 -2 26 -11 3 -28 1 -39
-4 -11 -6 -32 -11 -48 -10 l-28 1 28 11 c32 13 33 18 7 42 -15 13 -23 15 -33
7 -10 -8 -46 -9 -123 -3 -60 4 -99 9 -88 10 12 0 27 8 34 16 10 13 9 15 -9 15
-36 0 -23 18 18 25 22 3 47 13 58 20 17 14 17 14 0 15 -10 0 -25 7 -33 15 -13
12 -12 16 8 26 12 6 33 16 47 20 18 6 10 7 -24 3 -27 -3 -61 -6 -75 -5 -14 0
-20 -3 -15 -7 6 -4 10 -20 10 -35 -1 -25 2 -28 25 -22 25 6 25 6 3 -9 -12 -9
-29 -13 -38 -10 -15 6 -38 46 -39 69 -1 15 -63 45 -81 39 -8 -3 -15 -1 -15 5
0 6 -4 11 -10 11 -24 0 -6 -19 32 -35 32 -12 39 -19 27 -26 -8 -5 -9 -9 -3 -9
7 0 15 -7 18 -16 5 -13 1 -15 -19 -12 -13 3 -22 1 -19 -3 3 -5 12 -9 20 -9 8
0 14 -7 14 -15 0 -19 -9 -19 -29 -1 -20 17 -96 32 -86 17 4 -7 -4 -11 -19 -11
-14 0 -28 -5 -32 -11 -5 -9 1 -10 20 -5 14 3 37 9 51 12 15 4 25 2 25 -5 0 -6
-10 -11 -22 -11 -13 0 -30 -5 -38 -10 -12 -8 -9 -10 12 -10 15 0 29 -4 33 -9
8 -15 -29 -31 -69 -31 -20 0 -36 -3 -36 -8 0 -4 -9 -13 -20 -20 -17 -10 -26
-10 -50 3 -17 9 -30 12 -30 7 0 -16 -54 0 -82 23 -14 12 -57 30 -95 40 -77 21
-126 54 -112 76 7 12 9 12 9 -1 0 -17 38 -45 48 -35 4 3 0 10 -8 15 -13 8 -13
10 1 10 9 0 22 -7 29 -15 11 -13 15 -13 22 -3 5 8 11 9 16 3 4 -5 18 -11 31
-13 14 -1 34 -10 45 -20 11 -9 16 -11 12 -4 -4 7 -2 12 6 13 7 0 -2 5 -20 10
-18 5 -30 14 -27 20 4 5 12 6 18 2 7 -5 32 -9 57 -10 25 0 58 -4 74 -8 26 -7
27 -6 17 13 -6 11 -29 39 -51 63 -22 24 -40 46 -40 50 0 10 53 18 65 11 5 -4
35 -8 65 -9 102 -6 215 -11 250 -12 35 -1 32 -15 -5 -24 -11 -3 -4 -5 17 -6
21 0 55 6 77 15 39 15 41 15 103 -14 35 -16 80 -35 100 -41 41 -14 54 -27 56
-58 1 -20 -3 -22 -49 -16 -33 4 -49 2 -49 -6 0 -6 14 -11 32 -11 29 0 30 -1
13 -13 -27 -20 -11 -37 25 -27 17 5 34 10 38 11 4 1 17 5 30 10 13 5 32 9 43
9 27 0 14 20 -14 21 -20 1 -20 2 3 9 14 4 19 8 13 9 -7 1 -13 10 -13 21 0 11
-4 20 -10 20 -5 0 -10 5 -10 11 0 21 -30 39 -70 42 -28 1 -39 6 -35 15 3 7 -1
12 -10 10 -7 -2 -14 2 -14 7 -1 6 58 11 154 12 87 0 155 -3 155 -8 0 -5 5 -9
11 -9 5 0 7 5 4 10 -3 6 2 10 12 10 16 -1 15 -3 -5 -20 -13 -11 -18 -21 -12
-25 16 -10 71 5 77 21 6 15 43 20 43 5 0 -12 -94 -81 -110 -81 -6 0 -18 -7
-26 -15 -9 -8 -20 -15 -25 -15 -6 0 3 12 20 26 41 34 39 45 -9 42 l-40 -3 23
-17 22 -18 -23 0 c-13 0 -32 5 -43 11 -11 6 -25 8 -32 6 -7 -2 1 -10 16 -17
17 -9 23 -16 16 -20 -19 -12 78 -22 100 -11 11 6 29 11 40 11 12 0 21 5 21 11
0 6 8 9 18 7 12 -3 24 2 31 13 6 11 18 19 26 19 21 0 57 -42 52 -61 -3 -12 1
-15 20 -11 14 3 27 11 30 18 3 8 12 14 19 14 8 0 18 10 23 23 5 12 19 45 30
74 27 66 27 69 -6 79 -44 12 -68 10 -65 -5 2 -10 -4 -12 -25 -7 -69 17 -125
19 -134 5 -5 -8 -3 -16 4 -21 8 -5 6 -8 -6 -8 -13 0 -16 6 -14 22 2 13 2 17 0
10 -3 -10 -17 -13 -44 -10 -31 3 -38 1 -34 -12 4 -13 -17 -15 -158 -18 -145
-3 -166 -1 -200 16 -33 18 -38 18 -46 5 -4 -9 -14 -13 -20 -9 -6 4 -9 11 -6
16 5 8 -8 10 -87 12 -17 1 -28 7 -28 14 0 8 -7 14 -16 14 -8 0 -12 4 -9 10 6
10 -65 8 -82 -3 -6 -4 -19 0 -29 8 -10 8 -28 15 -39 15 -15 0 -16 3 -7 9 7 4
217 9 465 10 584 2 671 6 717 34 75 44 215 25 246 -34 8 -16 19 -29 24 -29 4
0 15 -13 23 -28 12 -24 12 -32 1 -47 -12 -16 -12 -21 1 -35 8 -9 15 -25 15
-35 0 -14 6 -11 28 15 l29 32 91 -5 c67 -3 94 -1 102 8 9 10 -12 13 -102 12
l-112 -1 -6 30 c-4 16 -12 40 -19 52 -7 13 -11 26 -8 28 5 5 132 -32 165 -48
12 -6 22 -17 22 -25 0 -9 16 -13 58 -13 31 0 64 -5 72 -10 8 -5 11 -10 5 -11
-5 -1 -14 -3 -20 -4 -5 -2 -16 -3 -23 -4 -7 0 -11 -5 -7 -10 6 -11 240 -7 268
4 13 5 15 11 7 20 -9 10 0 14 42 18 55 6 92 11 165 22 24 3 141 5 261 5 119
-1 294 -2 387 -2 203 1 588 -1 701 -2 66 -1 86 -5 103 -20 12 -11 21 -14 21
-8 0 7 15 12 36 12 21 0 33 -4 29 -10 -3 -5 1 -10 9 -10 20 0 29 17 14 24 -41
17 228 -9 290 -29 23 -8 31 -25 11 -25 -7 0 -9 -11 -5 -30 3 -16 2 -30 -3 -30
-5 0 -11 -9 -14 -19 -3 -15 2 -20 24 -25 30 -6 40 -26 13 -26 -8 0 -13 -4 -9
-10 3 -5 -8 -16 -25 -25 -24 -13 -38 -14 -68 -5 -51 14 -49 14 -70 -28 -15
-30 -17 -49 -11 -97 4 -33 5 -68 2 -78 -2 -10 1 -31 7 -47 10 -24 9 -32 -3
-45 -9 -8 -19 -37 -23 -63 -7 -48 -8 -65 -4 -142 2 -25 0 -60 -4 -78 -6 -27
-5 -32 11 -32 17 -1 17 -2 -2 -16 -19 -14 -19 -16 -2 -25 14 -8 18 -21 16 -48
-2 -20 0 -42 5 -49 4 -7 2 -12 -3 -12 -6 0 -11 -7 -11 -15 0 -8 4 -15 10 -15
6 0 6 -9 0 -26 -13 -34 -13 -34 11 -34 27 0 14 -20 -14 -21 -21 0 -21 -1 -2
-9 17 -7 17 -9 3 -9 -14 -1 -18 -11 -19 -48 -1 -27 0 -58 0 -69 1 -12 -9 -38
-23 -59 -30 -44 -34 -63 -8 -44 15 12 15 11 -1 -8 -10 -11 -14 -24 -9 -27 5
-3 19 9 31 25 16 22 26 28 34 20 7 -7 7 -14 -1 -23 -7 -9 -6 -18 4 -32 17 -24
19 -45 2 -28 -7 7 -22 12 -35 12 -17 0 -24 -7 -29 -27 -3 -16 -10 -38 -15 -51
-14 -36 -11 -49 14 -56 21 -7 21 -7 2 -15 -17 -7 -15 -10 18 -25 30 -15 51
-17 116 -11 55 5 86 3 102 -5 13 -7 68 -24 123 -37 84 -20 134 -25 292 -29
105 -3 198 -2 207 2 45 17 -1 41 -108 55 -38 6 -81 14 -95 19 -14 5 -38 11
-55 14 -52 8 -150 37 -160 47 -5 5 1 9 18 9 22 0 26 4 23 23 -2 12 -9 21 -14
20 -6 -2 -23 8 -37 22 -21 19 -25 29 -19 47 4 13 8 125 8 250 1 198 3 229 17
240 13 10 18 39 24 133 4 66 11 121 16 123 4 2 1 15 -8 29 -13 20 -14 29 -5
43 6 11 17 70 23 133 10 102 10 116 -6 148 -21 42 -54 79 -71 79 -7 0 -22 20
-34 45 -21 44 -22 46 -4 73 10 15 17 35 15 45 -1 10 2 24 8 31 8 10 6 17 -7
29 -21 19 -93 17 -117 -3 -10 -8 -15 -9 -15 -2 0 6 5 14 10 17 14 9 -3 38 -35
59 -14 9 -49 19 -78 22 -28 3 -81 14 -116 25 -35 10 -72 19 -82 19 -24 0 -99
37 -99 49 0 12 165 21 376 21 136 0 194 4 234 16 61 18 117 14 168 -12 23 -11
46 -14 73 -10 24 4 39 2 39 -4 0 -5 -6 -10 -12 -10 -33 -1 32 -23 76 -27 27
-2 53 -8 57 -14 5 -8 8 -7 11 1 7 21 58 15 74 -9 8 -11 21 -21 28 -21 8 0 19
-7 26 -14 6 -8 45 -22 86 -32 41 -9 76 -19 79 -24 7 -11 -106 -1 -132 12 -23
11 -53 5 -53 -12 0 -9 16 -12 78 -14 13 -1 30 -9 37 -19 9 -12 31 -20 67 -24
29 -3 58 -12 65 -20 8 -10 13 -11 18 -2 11 16 103 4 127 -18 18 -16 16 -17
-39 -35 -32 -10 -94 -21 -137 -24 -44 -3 -87 -9 -95 -14 -16 -8 -102 -24 -246
-44 -57 -9 -72 -14 -53 -18 15 -3 51 -1 80 4 51 8 272 22 351 22 20 0 37 4 37
8 0 4 11 8 24 8 14 0 28 4 31 10 3 5 18 10 32 10 14 0 35 10 47 24 22 24 91
46 138 43 29 -2 51 -17 25 -17 -27 0 -19 -23 18 -53 20 -16 33 -32 30 -36 -8
-15 53 -34 86 -27 27 5 30 4 19 -9 -11 -13 -7 -15 21 -17 92 -4 111 -7 134
-22 32 -21 66 -21 59 -1 -4 8 -1 15 6 15 6 0 8 5 5 10 -3 5 3 10 14 10 11 0
23 -5 26 -10 3 -6 15 -10 26 -10 11 0 40 -13 64 -30 47 -32 91 -41 81 -15 -3
9 4 20 21 29 l27 13 -37 14 c-54 19 -45 31 18 24 41 -6 55 -4 55 5 0 9 4 9 13
3 13 -11 150 -38 232 -47 63 -7 49 0 -35 18 -44 9 -55 14 -35 15 44 2 12 17
-55 26 -30 4 -64 11 -75 16 -29 11 51 12 91 0 17 -5 60 -11 95 -15 l64 -6 -77
18 c-42 10 -84 24 -93 32 -14 12 -18 12 -25 -1 -8 -11 -13 -12 -29 -2 -10 6
-28 9 -39 6 -13 -3 -28 2 -37 11 -10 10 -34 16 -63 17 -26 0 -56 4 -67 9 -22
9 193 5 281 -6 29 -3 54 -2 57 3 3 5 -2 9 -11 9 -9 1 -115 7 -235 14 -120 7
-221 10 -224 6 -5 -5 52 -9 60 -4 5 3 48 -24 44 -28 -2 -3 -44 0 -93 5 -247
28 -266 32 -283 49 -13 13 -13 17 7 32 12 10 22 24 22 32 0 8 5 19 12 26 18
18 -3 15 -53 -8 -39 -18 -42 -20 -21 -26 12 -4 22 -10 22 -15 0 -15 -26 -10
-43 9 -13 15 -14 21 -4 31 9 10 8 11 -5 6 -11 -4 -18 -2 -18 4 0 6 5 11 10 11
6 0 10 4 10 10 0 5 -8 6 -17 3 -12 -5 -15 -2 -11 8 4 10 -11 22 -46 39 -28 14
-54 29 -57 33 -3 4 -18 10 -32 13 -25 4 -26 3 -15 -21 6 -14 18 -25 27 -25 14
0 14 -2 1 -11 -11 -8 -12 -12 -2 -16 6 -2 9 -10 5 -16 -4 -7 0 -7 9 1 14 11
18 10 28 -7 12 -23 11 -24 -40 -21 -19 1 -55 3 -80 3 -71 3 -158 35 -188 69
-15 17 -26 35 -24 41 4 13 -18 27 -44 27 -18 0 -20 5 -16 27 4 23 6 24 17 10
12 -17 35 -23 35 -9 0 33 147 53 237 31 31 -8 195 -13 458 -16 226 -2 428 -4
450 -5 22 -1 159 2 305 6 146 4 427 9 625 11 198 2 396 6 440 10 100 8 319 -8
448 -35 55 -11 102 -20 107 -20 6 0 17 58 24 133 2 15 -3 31 -9 35 -16 9 -26
64 -15 82 6 9 5 17 -3 22 -8 5 -6 8 6 8 9 0 17 5 17 10 0 6 5 10 10 10 6 0 10
-6 10 -12 0 -7 11 -35 25 -62 34 -66 32 -92 -5 -111 -16 -9 -31 -21 -32 -28
-6 -51 -8 -79 -8 -123 0 -58 -12 -67 -76 -57 -22 4 -34 2 -34 -6 0 -10 42 -16
78 -12 6 1 12 -3 12 -9 0 -21 2 -25 16 -33 14 -8 20 -28 7 -25 -13 2 -43 -14
-43 -23 0 -13 54 -11 67 2 6 6 10 17 9 23 -2 6 -1 8 1 3 3 -4 9 -5 14 -1 5 3
9 0 9 -5 0 -6 -4 -11 -9 -11 -5 0 -7 -9 -4 -19 3 -10 0 -27 -5 -38 -7 -13 -6
-23 2 -35 7 -10 15 -15 19 -12 6 6 87 -33 87 -42 0 -3 -8 -3 -17 1 -40 16 -87
23 -107 15 -18 -8 -16 -9 12 -9 19 -1 73 -15 120 -32 48 -16 95 -28 104 -25
10 2 16 1 13 -4 -3 -4 10 -10 28 -14 49 -9 365 -5 342 4 -11 5 -33 9 -50 10
-18 2 -23 4 -12 7 32 8 6 23 -41 23 -79 1 -233 26 -247 41 -10 10 -12 32 -8
82 l6 67 122 0 c83 0 136 -5 165 -15 25 -9 82 -16 139 -16 53 -1 130 -4 171
-8 41 -3 106 -1 145 5 76 13 488 19 1298 19 284 0 517 3 517 6 0 4 -16 10 -35
13 -56 11 -40 26 28 27 34 0 98 2 142 4 44 2 253 6 465 9 212 3 639 10 950 16
311 5 685 10 832 11 147 0 281 4 299 9 22 6 35 6 39 0 4 -7 46 -6 126 1 65 7
145 11 177 10 55 -2 57 -1 57 24 l0 26 -167 -6 c-321 -10 -991 -21 -1913 -30
-278 -3 -644 -8 -815 -11 -243 -5 -322 -3 -365 8 -75 18 -340 111 -340 119 0
11 1099 22 1350 14 438 -14 436 -14 488 30 25 21 46 27 129 35 54 5 114 14
133 21 19 6 79 11 133 11 81 1 100 -2 117 -17 16 -14 17 -20 8 -27 -9 -5 -10
-8 -1 -8 6 0 18 -6 25 -12 7 -7 27 -20 43 -28 17 -8 33 -19 36 -24 14 -18 37
2 32 28 -4 22 -11 26 -38 26 -18 0 -39 8 -48 18 -24 26 -21 32 11 22 15 -4 55
-14 90 -20 34 -7 62 -17 62 -22 0 -6 -14 -7 -32 -3 -22 5 -30 4 -23 -3 6 -6
18 -12 28 -14 26 -5 26 -22 0 -26 -26 -4 -30 -17 -9 -25 18 -7 96 4 96 13 0 5
10 6 22 2 14 -3 19 -2 14 6 -4 7 -18 12 -31 12 -21 0 -43 16 -34 25 2 2 186 6
409 9 223 4 447 9 498 12 l92 6 0 1094 0 1094 -72 -2 c-40 -1 -79 1 -85 5 -7
5 -40 6 -73 3 -41 -4 -60 -2 -60 5 0 6 -9 9 -20 6 -11 -3 -23 -1 -26 5 -3 5
-13 7 -21 4 -23 -9 -57 13 -44 28 6 7 8 16 3 20 -4 4 1 12 11 18 14 7 15 13 7
23 -6 7 -7 15 -3 18 4 2 85 5 178 6 94 1 178 4 188 7 16 5 17 32 17 379 l0
374 -27 4 -28 4 28 2 27 1 0 2126 0 2126 -35 -4 c-19 -2 -35 0 -35 4 0 4 6 8
13 9 6 0 -3 5 -22 11 -20 5 -37 6 -43 0 -10 -10 -63 0 -135 25 -41 14 -48 24
-45 63 1 8 -5 39 -14 68 -11 40 -21 55 -40 62 -30 12 -110 2 -125 -16 -6 -7
-13 -46 -16 -87 l-6 -75 28 6 c49 9 19 -13 -44 -34 -34 -10 -61 -22 -61 -26 0
-5 -4 -8 -10 -8 -5 0 -9 6 -7 13 1 8 -13 12 -41 13 -54 2 -63 10 -68 63 -5 50
-18 77 -45 91 -26 14 -86 15 -120 2 -15 -6 -29 -9 -32 -6 -2 2 -10 -2 -16 -10
-8 -10 -10 -33 -5 -75 6 -53 10 -62 30 -67 12 -3 25 -13 28 -21 5 -11 2 -13
-10 -9 -8 3 -70 1 -137 -6 -151 -14 -376 -13 -422 2 -36 12 -38 17 -51 115 -9
73 -25 92 -80 101 -30 4 -54 3 -66 -5 -10 -6 -24 -11 -33 -11 -23 0 -36 -37
-32 -92 3 -34 10 -54 21 -60 14 -8 15 -13 5 -24 -6 -8 -19 -14 -28 -15 -9 -1
-7 -4 7 -7 13 -4 23 -10 23 -14 -1 -5 -3 -7 -4 -5 -2 1 -11 -4 -20 -12 -11 -8
-17 -9 -17 -2 0 7 -19 9 -55 7 -43 -3 -53 -1 -46 8 8 9 -6 12 -55 13 -38 1
-62 -2 -59 -8 4 -5 -1 -9 -10 -9 -9 0 -13 5 -10 10 4 6 -21 10 -67 10 -40 0
-90 5 -111 11 l-37 10 1 75 c2 94 -16 124 -80 137 -35 7 -46 5 -62 -9 -10 -9
-19 -13 -19 -8 0 5 -7 0 -15 -10 -19 -26 -21 -150 -2 -144 13 5 51 -29 39 -36
-10 -6 -114 12 -123 21 -4 4 -9 42 -12 83 -2 41 -9 118 -15 170 -23 198 -33
393 -31 640 0 140 5 262 9 270 5 9 4 67 -2 129 -12 126 -13 125 53 135 51 8
43 26 -27 67 -62 35 -69 45 -78 117 -4 29 -12 64 -18 77 -17 37 -98 73 -98 44
0 -5 -4 -8 -9 -5 -15 9 -51 -39 -49 -65 2 -19 -1 -24 -17 -22 -19 1 -19 1 -1
-12 15 -12 17 -19 8 -43 -11 -33 -1 -52 29 -52 25 0 49 -11 49 -21 0 -5 -25
-9 -55 -9 -31 0 -55 -5 -55 -10 0 -6 -12 -8 -27 -5 -16 2 -88 7 -162 10 -74 3
-138 8 -143 11 -5 3 -16 0 -24 -7 -12 -10 -17 -10 -23 -1 -4 8 -15 10 -26 6
-11 -5 -16 -3 -12 2 3 6 -14 9 -43 8 -26 -1 -71 4 -99 12 -55 17 -52 11 -65
128 -7 55 -17 71 -59 93 -27 14 -31 14 -39 -2 -8 -13 -13 -14 -24 -4 -10 8
-14 8 -14 0 0 -6 -9 -11 -20 -11 -13 0 -22 -9 -26 -27 -4 -16 -12 -31 -18 -35
-8 -5 -7 -8 2 -8 6 0 12 -9 12 -21 0 -12 4 -17 11 -13 8 4 9 0 4 -15 -4 -12
-2 -21 4 -21 6 0 11 -7 11 -16 0 -9 17 -22 40 -31 43 -17 51 -28 23 -30 -107
-8 -264 -9 -269 -2 -3 5 -9 7 -13 4 -5 -2 -23 0 -40 5 -25 7 -33 6 -38 -5 -4
-11 -10 -12 -24 -4 -14 7 -19 6 -19 -2 0 -8 -4 -8 -15 1 -8 7 -58 14 -117 17
-59 3 -114 11 -130 19 -15 8 -36 14 -46 14 -25 0 -32 18 -32 80 0 74 -10 109
-42 141 -33 33 -63 37 -94 11 -34 -27 -40 -52 -35 -136 l6 -79 44 -11 c48 -12
66 -32 29 -31 -13 0 -28 3 -34 7 -6 4 -33 5 -60 3 -48 -4 -250 -8 -289 -5 -11
1 -41 -1 -67 -4 -33 -3 -48 -1 -48 7 0 8 -3 8 -8 -1 -6 -9 -16 -10 -33 -4 -31
12 -129 13 -129 1 0 -5 -4 -9 -10 -9 -5 0 -7 7 -4 15 5 11 2 13 -11 8 -11 -4
-22 0 -29 8 -6 8 -27 19 -46 25 l-35 10 -7 79 c-7 72 -10 83 -38 108 -28 25
-78 39 -65 17 3 -5 0 -7 -8 -5 -27 11 -44 -28 -50 -112 -4 -64 -2 -83 8 -83
24 0 88 -32 78 -38 -6 -4 -102 -7 -212 -7 -111 0 -201 -2 -201 -5 0 -12 -151
-2 -167 11 -14 12 -16 12 -8 0 6 -10 4 -12 -5 -6 -7 4 -35 8 -62 8 -26 1 -48
4 -48 9 0 4 -15 8 -34 8 -21 0 -36 6 -40 15 -3 8 -16 15 -30 15 -32 0 -35 5
-46 96 -6 43 -17 85 -25 94 -23 26 -82 24 -110 -4 -30 -30 -41 -66 -24 -76 10
-7 10 -12 1 -23 -7 -7 -9 -17 -5 -21 4 -4 1 -12 -7 -17 -12 -8 -10 -9 6 -4 17
4 22 1 20 -12 -1 -13 10 -20 36 -27 20 -5 40 -16 43 -24 4 -11 -1 -13 -19 -8
-14 3 -28 1 -31 -4 -4 -6 -11 -8 -16 -4 -13 8 -99 -16 -99 -27 0 -5 -7 -9 -16
-9 -9 0 -23 -9 -33 -21 -9 -11 -28 -22 -43 -22 -14 -1 -24 -5 -22 -9 2 -4 0
-9 -6 -13 -5 -3 -10 0 -10 7 0 7 -9 -2 -20 -19 -11 -18 -22 -33 -25 -33 -4 0
-3 5 1 11 4 7 1 10 -7 7 -8 -3 -13 -10 -12 -16 1 -5 -7 -8 -17 -5 -11 3 -20 1
-20 -5 0 -5 -7 -12 -14 -15 -11 -4 -13 -1 -9 11 4 11 -8 5 -33 -16 -59 -50
-63 -52 -71 -52 -5 0 -25 -11 -46 -25 l-37 -26 0 26 c0 14 9 30 20 37 16 10
20 23 19 68 -1 91 -11 133 -34 136 -11 1 -36 5 -57 9 -32 7 -38 4 -54 -19 -12
-19 -16 -43 -14 -79 1 -29 3 -65 4 -82 1 -22 7 -30 25 -35 14 -3 26 -11 28
-17 6 -17 -44 -24 -137 -18 -66 4 -332 6 -395 3 -50 -2 -206 16 -230 27 -16 7
-38 16 -47 19 -16 5 -18 19 -18 104 0 82 -3 102 -17 114 -28 25 -56 29 -87 13
-26 -14 -28 -14 -21 2 4 13 -1 11 -19 -6 -23 -22 -26 -33 -26 -91 0 -92 8
-127 31 -133 10 -3 19 -12 19 -20 0 -13 -17 -15 -105 -14 -58 1 -105 4 -105 7
0 3 -75 6 -168 8 -148 2 -170 5 -194 22 -15 11 -36 20 -48 20 -19 0 -20 6 -20
102 0 101 0 102 -31 134 -27 28 -34 31 -46 19 -7 -8 -21 -11 -29 -8 -11 4 -27
-6 -48 -29 -32 -35 -32 -36 -19 -79 7 -24 13 -61 13 -81 0 -27 6 -41 20 -50
11 -7 20 -22 20 -32 0 -15 -3 -17 -11 -9 -7 7 -21 8 -41 2 -17 -4 -35 -6 -40
-3 -6 4 -21 1 -34 -7 -20 -10 -29 -10 -51 2 -19 10 -27 11 -30 2 -3 -8 -11 -8
-29 2 -17 8 -37 10 -60 5 -19 -4 -36 -4 -39 1 -3 4 -18 8 -33 8 -15 0 -76 2
-136 5 -88 4 -113 9 -130 24 -12 11 -29 22 -38 25 -13 5 -18 17 -18 44 0 84
-19 157 -45 181 -30 26 -68 30 -59 7 4 -9 0 -15 -10 -15 -24 0 -34 -28 -41
-126 -7 -90 -7 -90 19 -107 14 -10 26 -22 26 -27 0 -5 -82 -7 -202 -4 -112 3
-216 5 -233 4 -143 -6 -158 -4 -177 29 -11 20 -26 31 -45 33 l-28 3 3 80 c5
124 -28 162 -110 130 -23 -9 -30 -36 -33 -125 -3 -69 -1 -77 23 -102 14 -15
23 -31 19 -34 -10 -11 -397 -4 -397 6 0 3 -20 5 -44 4 -37 -1 -46 2 -54 21 -6
14 -23 26 -41 30 l-31 7 0 98 0 98 -35 31 c-26 23 -42 29 -65 26 -40 -5 -85
-44 -86 -75 -9 -144 -7 -163 14 -181 12 -9 22 -24 22 -33 0 -17 -30 -22 -45
-7 -10 10 -46 14 -103 12 -24 -1 -31 -5 -26 -13 6 -10 5 -10 -7 -1 -8 7 -52
11 -112 11 -60 0 -103 4 -110 11 -6 6 -18 11 -27 11 -9 0 -24 6 -34 13 -17 13
-17 14 -1 30 26 26 12 60 -30 77 -20 8 -41 20 -46 26 -6 7 -13 55 -15 106 -4
62 -11 103 -22 122 -20 34 -42 45 -42 21 0 -13 -4 -15 -12 -8 -7 6 -21 9 -31
7 -14 -2 -17 2 -13 14 4 9 -7 2 -24 -16 -20 -22 -30 -43 -30 -65 -1 -17 -3
-60 -5 -94 -4 -43 -1 -65 8 -75 7 -7 16 -24 20 -37 6 -23 4 -23 -37 -18 -24 4
-46 3 -50 0 -10 -11 -69 -9 -119 4 -26 7 -54 10 -63 6 -8 -3 -20 -1 -27 5 -6
6 -29 10 -51 9 -29 -1 -43 5 -56 21 -10 12 -23 22 -29 22 -13 0 -18 24 -25
123 -8 103 -26 132 -87 132 -41 0 -45 -3 -62 -38 -10 -21 -23 -76 -29 -123
-10 -82 -10 -84 13 -103 13 -11 22 -22 19 -25 -8 -8 -153 -9 -171 -1 -10 3
-20 2 -24 -4 -3 -7 -22 -9 -43 -6 -20 3 -91 8 -157 11 -66 3 -138 6 -160 7
-22 1 -52 11 -67 21 -26 17 -28 23 -28 90 -1 127 -33 201 -77 178 -12 -7 -33
-8 -55 -3 -20 5 -41 5 -47 2 -12 -8 -21 -59 -28 -163 -5 -70 -3 -77 16 -87 12
-7 21 -17 21 -24 0 -9 -23 -11 -87 -9 -49 2 -166 5 -261 7 -95 3 -181 9 -192
15 -13 7 -20 7 -20 1 0 -15 -32 -1 -58 26 -18 20 -24 43 -32 120 -10 94 -29
147 -59 158 -8 3 -19 1 -25 -5 -15 -15 -26 -12 -19 6 5 14 3 14 -16 3 -11 -8
-21 -17 -21 -21 0 -5 0 -10 0 -13 0 -3 -8 -13 -19 -24 -25 -25 -30 -175 -7
-206 25 -33 20 -53 -11 -48 -27 4 -343 13 -456 13 -54 0 -59 2 -97 41 -39 40
-40 44 -40 110 0 78 -11 113 -43 139 -18 15 -23 16 -30 4 -6 -11 -12 -11 -27
-2 -14 9 -25 9 -43 1 -20 -10 -27 -23 -37 -80 -20 -105 -21 -147 -5 -159 36
-27 20 -34 -95 -37 -63 -2 -127 0 -141 4 -14 3 -33 3 -42 -2 -11 -7 -19 -4
-26 8 -6 10 -11 13 -11 6 0 -9 -22 -11 -77 -8 -43 2 -90 4 -104 4 -17 1 -29 9
-37 26 -7 14 -20 25 -31 25 -27 0 -31 18 -31 128 0 105 -4 116 -37 126 -13 3
-33 9 -44 12 -16 5 -20 3 -15 -7 4 -8 1 -6 -7 4 -19 23 -22 22 -50 -15z m8963
-1487 c-6 -12 -8 -21 -6 -21 3 0 1 -12 -4 -26 -9 -22 -7 -27 10 -31 20 -5 29
-33 10 -33 -5 0 -10 -5 -10 -11 0 -5 5 -7 11 -3 7 4 10 1 7 -6 -8 -26 -28 -22
-28 4 0 27 -3 29 -34 17 -20 -8 -34 -71 -16 -71 6 0 10 12 10 28 1 23 2 25 11
9 5 -9 8 -21 4 -26 -3 -5 2 -11 10 -13 13 -3 13 -6 0 -32 -8 -15 -15 -54 -15
-86 0 -64 -7 -90 -22 -90 -6 0 -8 12 -4 30 4 21 2 30 -7 30 -10 0 -12 30 -9
133 4 132 17 187 45 187 7 0 19 9 27 20 18 25 25 18 10 -9z m75 -711 c-3 -5
-15 -10 -26 -10 -10 0 -19 -6 -20 -12 -4 -86 -3 -116 4 -109 5 5 9 22 9 39 1
35 13 43 46 31 24 -9 29 -28 10 -47 -9 -9 -10 -17 -1 -31 14 -22 10 -134 -5
-139 -6 -2 -9 9 -5 28 3 22 1 30 -6 25 -6 -3 -11 -12 -11 -19 0 -7 -7 -13 -15
-13 -9 0 -15 10 -15 23 0 31 -10 55 -21 48 -13 -7 -10 168 3 184 12 14 62 17
53 2z m-9470 -637 c-3 -21 -7 -144 -10 -273 -8 -454 -18 -700 -26 -700 -5 0
-9 45 -9 100 0 124 1 111 -14 135 -7 11 -11 34 -10 50 1 17 3 36 3 43 1 7 5
11 10 8 9 -6 21 72 21 136 0 20 -6 39 -12 41 -10 4 -10 8 -2 14 14 10 24 141
11 146 -5 1 -5 19 2 42 6 21 9 41 6 43 -2 2 -16 -3 -32 -11 -51 -28 -135 -57
-145 -51 -5 3 33 25 84 48 105 47 105 47 107 168 1 62 7 98 18 98 2 0 1 -17
-2 -37z m-2032 -485 c8 -27 -1 -37 -14 -18 -8 11 -9 8 -3 -10 15 -56 50 -70
40 -16 -4 20 -2 37 4 41 6 4 10 -5 11 -22 0 -15 3 -71 5 -123 6 -137 -4 -240
-22 -233 -8 3 -14 0 -14 -6 0 -6 7 -11 15 -11 9 0 15 -10 15 -26 0 -14 -4 -23
-9 -19 -5 3 -11 -7 -13 -22 l-3 -28 -16 30 c-9 17 -14 36 -12 43 3 6 0 12 -5
12 -6 0 -13 -6 -16 -12 -3 -7 -4 79 -4 192 1 187 8 250 28 250 4 0 10 -10 13
-22z m278 -8 c13 -45 9 -107 -8 -146 -20 -48 -23 -100 -5 -96 18 3 25 -23 17
-65 -5 -26 -9 -33 -15 -23 -5 8 -12 12 -15 8 -3 -3 1 -13 10 -21 13 -14 15
-47 15 -215 l-1 -200 -25 -5 c-22 -4 -24 -1 -25 37 -2 69 2 90 20 102 15 11
16 20 7 68 -6 31 -14 56 -18 56 -17 0 -7 30 10 30 15 1 15 2 -3 16 -14 11 -16
18 -7 21 14 6 16 33 2 33 -6 0 -10 79 -10 216 l0 215 22 -3 c14 -2 25 -13 29
-28z m503 -50 c0 -36 -1 -81 -2 -100 -1 -19 0 -78 2 -130 2 -52 -1 -103 -6
-114 -6 -11 -6 -21 -1 -25 12 -8 10 -211 -2 -210 -9 0 -11 10 -5 34 5 21 0 55
-9 55 -5 0 -8 -6 -7 -14 0 -8 -3 -15 -9 -15 -5 0 -12 -8 -16 -18 -7 -17 -7
-17 -15 1 -4 11 -2 27 5 38 8 13 8 24 1 38 -13 24 -13 60 0 60 5 0 7 7 4 15
-4 8 -1 15 4 15 6 0 12 -15 14 -32 l4 -33 12 29 c7 16 9 32 4 35 -4 3 -8 24
-9 46 0 22 -1 58 -2 80 -2 35 -3 37 -11 18 -13 -31 -23 -29 -17 3 3 16 0 28
-8 31 -9 3 -13 25 -13 68 0 35 -3 69 -8 76 -5 9 -2 11 9 6 10 -3 17 -2 17 3 0
10 -40 18 -105 22 -22 2 -39 8 -37 13 1 6 28 9 62 7 49 -3 60 -1 60 11 0 20
49 59 69 55 13 -3 16 -17 15 -68z m-243 -217 c1 -16 2 -16 6 -2 3 12 16 17 49
17 l45 1 -2 -215 c-1 -118 -6 -217 -10 -220 -5 -3 -9 3 -9 13 0 11 -3 14 -8 6
-4 -7 -24 -9 -55 -6 -52 6 -48 -4 -48 123 0 276 1 300 16 300 8 0 16 -8 16
-17z m-701 -14 c0 -11 4 -19 9 -19 5 0 7 9 4 20 -5 17 0 20 29 20 l35 0 1
-152 c1 -84 3 -175 5 -201 4 -47 -8 -71 -23 -47 -5 8 -10 8 -14 2 -5 -8 -76
-9 -96 -2 -3 1 -12 2 -21 1 -15 -2 -17 17 -18 163 -1 147 1 165 17 171 16 6
16 7 0 16 -10 6 -18 19 -18 29 0 16 7 19 45 18 37 0 45 -4 45 -19z m-2503
-934 c17 -4 29 -2 34 7 4 6 27 13 50 13 24 1 44 6 47 13 2 7 16 12 30 11 15 0
21 -3 15 -6 -18 -7 -16 -23 2 -23 9 0 18 -7 22 -15 5 -14 7 -14 23 0 9 8 34
16 54 17 20 1 39 5 42 10 12 19 26 7 20 -17 -7 -27 11 -36 20 -10 4 8 10 12
15 9 5 -3 9 -1 9 3 0 5 18 14 40 20 25 6 40 7 40 0 0 -5 9 -7 20 -4 26 7 38
-13 16 -28 -24 -18 -11 -40 40 -66 24 -13 44 -27 44 -31 0 -5 7 -8 15 -8 19 0
55 -31 49 -42 -3 -5 -2 -8 3 -7 26 5 50 -4 61 -21 11 -18 9 -22 -23 -37 -20
-10 -34 -22 -31 -29 9 -25 -60 -56 -74 -34 -6 10 -14 7 -31 -9 -16 -14 -18
-21 -8 -21 10 -1 9 -5 -5 -15 -19 -14 -18 -15 17 -15 20 0 37 -5 37 -10 0 -7
-32 -10 -87 -8 -52 2 -87 7 -86 13 1 6 -3 16 -9 22 -6 7 -8 19 -5 27 6 16 -12
26 -49 26 -25 0 -33 15 -11 23 9 4 8 8 -3 16 -13 10 -13 11 0 11 11 0 15 12
15 50 0 28 -4 50 -10 50 -5 0 -2 7 9 15 18 13 18 15 -4 44 -24 35 -32 37 -54
15 -17 -17 -19 -24 -16 -65 1 -25 -2 -26 -56 -32 -57 -6 -77 -19 -67 -44 3 -8
-5 -15 -26 -19 -26 -5 -31 -11 -31 -35 0 -22 -7 -31 -35 -45 -43 -20 -44 -30
-5 -39 16 -4 32 -11 35 -16 10 -16 -54 -10 -81 8 -26 17 -153 21 -215 8 -18
-4 -29 -2 -29 4 0 6 5 11 11 11 8 0 8 5 -1 15 -10 12 -10 15 1 15 12 0 12 2 0
9 -8 5 -11 16 -8 24 6 17 -12 27 -49 27 -22 0 -25 4 -21 28 4 27 2 29 -29 30
-19 1 -45 -3 -59 -8 -33 -13 -38 0 -18 46 12 29 18 34 21 21 4 -18 4 -18 18 0
11 13 13 14 9 2 -5 -12 1 -15 25 -14 16 1 30 -2 30 -8 0 -5 -10 -7 -22 -4 -13
2 -34 1 -48 -3 -19 -6 -11 -8 32 -9 34 -1 58 -6 60 -13 3 -7 7 -5 11 6 4 10 3
15 -3 11 -6 -3 -10 5 -10 19 0 14 -8 33 -19 43 -10 10 -22 28 -25 41 -7 21 -5
22 44 22 28 0 66 -6 84 -14 22 -9 38 -11 50 -4 11 6 22 6 32 -2 10 -9 14 -9
14 -1 0 6 -10 16 -22 21 -19 8 -17 9 11 4 23 -4 31 -3 27 5 -5 7 1 11 14 11
11 0 24 8 28 18 6 15 7 14 10 -5 2 -13 13 -24 29 -28z m6522 -312 c10 -17 10
-17 11 -1 0 25 28 12 44 -21 9 -17 11 -34 5 -49 -5 -13 -4 -33 2 -48 11 -30 3
-46 -11 -24 -9 13 -10 13 -10 0 -1 -11 -4 -10 -15 4 -13 17 -15 18 -15 3 0
-26 -16 -20 -45 16 -17 20 -29 27 -32 19 -2 -6 -9 -10 -14 -6 -5 3 -9 -2 -9
-10 0 -27 -18 -17 -23 12 -3 19 -4 14 -6 -15 0 -24 -5 -43 -10 -43 -12 0 -17
19 -16 59 2 28 11 43 51 78 53 46 77 53 93 26z m-2204 -23 c3 -5 15 -6 28 -1
32 11 140 6 166 -9 15 -8 21 -8 17 -1 -4 6 -2 11 3 11 6 0 11 -4 11 -8 0 -5
23 -24 50 -43 29 -20 48 -39 45 -47 -3 -7 0 -10 6 -7 5 4 16 1 24 -5 8 -7 15
-9 15 -6 0 4 10 -2 22 -14 12 -11 26 -20 30 -20 5 0 8 -8 6 -17 -2 -11 10 -24
35 -37 20 -11 37 -24 37 -28 0 -16 -83 36 -88 55 -2 9 -10 17 -17 17 -8 0 -22
8 -31 18 -17 16 -18 16 -11 -1 5 -14 3 -18 -11 -15 -9 2 -17 10 -17 18 0 10
-8 14 -24 12 -13 -2 -21 1 -17 6 3 5 -14 13 -39 16 -25 4 -45 11 -45 17 0 12
33 12 46 0 5 -5 18 -5 29 -1 19 8 19 9 -1 9 -12 1 -24 7 -27 15 -11 28 -47 25
-97 -10 -59 -40 -72 -43 -40 -9 13 14 29 25 36 25 6 0 16 6 22 13 8 9 -6 13
-61 15 l-72 2 -67 -55 c-71 -59 -96 -71 -57 -28 l24 27 -27 -17 c-46 -29 -32
-1 17 34 25 18 45 34 45 36 0 2 -3 2 -7 0 -21 -13 -113 -35 -113 -27 0 4 25
16 55 26 62 19 80 33 34 26 -17 -3 -29 0 -29 7 0 14 86 15 95 1z m-655 -85
c41 -9 88 -25 104 -37 21 -15 31 -18 34 -9 3 9 7 9 18 0 8 -6 29 -13 47 -15
69 -6 188 -64 132 -64 -8 0 -15 -4 -15 -10 0 -5 -5 -10 -11 -10 -6 0 -9 6 -6
14 7 19 -27 26 -116 23 -37 -1 -67 -1 -67 1 0 1 12 8 28 14 l27 12 -26 3 c-15
2 -68 -8 -118 -22 -105 -30 -137 -27 -39 4 73 23 58 28 -22 6 -67 -18 -74 -18
-35 1 l30 14 -32 -5 c-18 -3 -48 -8 -65 -11 -60 -12 -19 9 54 27 66 16 69 18
33 19 -31 1 -35 3 -20 9 11 5 38 7 60 5 32 -3 24 2 -45 27 -87 31 -80 31 50 4z
m1270 -125 c11 -39 22 -46 54 -34 23 9 20 23 -4 17 -11 -3 -20 -1 -20 5 0 15
36 25 57 14 10 -4 46 -8 81 -6 34 1 62 -3 62 -7 0 -5 6 -9 13 -9 16 0 43 -30
76 -82 12 -21 27 -38 32 -38 6 0 7 -4 4 -10 -3 -5 -18 -10 -32 -10 -22 0 -25
4 -21 25 4 18 0 26 -13 30 -11 4 -19 11 -19 16 0 5 -9 9 -21 9 -15 0 -19 5
-15 15 5 14 -6 19 -41 18 -7 -1 -13 3 -13 8 0 16 -41 9 -67 -11 -14 -11 -31
-20 -38 -20 -18 0 -58 -47 -50 -59 3 -6 -2 -22 -12 -35 -15 -18 -23 -22 -36
-14 -9 5 -17 14 -17 20 0 7 6 6 15 -2 9 -7 19 -10 22 -6 4 4 1 11 -7 16 -12 7
-10 13 10 35 l25 26 -28 -10 c-15 -6 -27 -8 -27 -6 0 9 24 50 33 56 5 3 1 13
-7 22 -14 14 -23 67 -11 67 2 0 9 -18 15 -40z m-3130 -5 c9 -5 9 -10 1 -18 -6
-6 -11 -20 -11 -31 0 -15 -3 -17 -12 -8 -8 8 -8 15 2 27 10 12 10 15 -4 15 -9
0 -15 -3 -14 -7 1 -5 -3 -17 -9 -29 -16 -28 -7 -37 69 -66 52 -20 65 -22 61
-11 -5 13 -1 12 23 -3 45 -28 64 -46 64 -61 0 -17 -16 -17 -32 0 -7 8 -21 12
-31 9 -20 -5 -67 16 -80 35 -4 7 -16 13 -25 13 -9 1 -34 9 -54 18 -29 14 -35
21 -26 30 9 9 9 12 -2 13 -8 1 -19 2 -25 4 -5 1 -16 3 -22 3 -14 2 -18 63 -5
76 8 9 115 2 132 -9z m-563 -24 c9 -14 26 -21 54 -23 24 -2 44 -9 47 -15 3
-10 -15 -12 -70 -9 -48 2 -82 -1 -100 -10 -32 -17 -41 -18 -33 -4 3 6 -3 10
-14 10 -11 0 -22 -4 -25 -9 -3 -5 -14 -8 -24 -6 -58 12 -82 14 -78 7 2 -4 -7
-7 -22 -6 -15 1 -27 3 -27 4 0 1 -31 4 -70 6 -49 2 -77 -1 -92 -12 -27 -17
-33 -18 -33 -1 0 13 -136 15 -253 4 -42 -4 -56 -2 -51 6 5 8 2 8 -7 0 -15 -15
-33 -17 -24 -4 9 16 -27 21 -82 12 -29 -4 -53 -4 -53 0 0 10 -33 -1 -42 -15
-4 -6 -12 -5 -21 3 -9 6 -35 11 -59 10 -45 -3 -68 5 -68 22 0 5 9 9 19 9 11 0
26 6 34 14 12 12 58 14 263 12 213 -2 737 5 799 12 11 1 26 -7 32 -17z m14281
-117 c70 -9 66 -26 -5 -22 l-58 3 -3 -53 -3 -52 -55 6 -54 7 0 -47 0 -46 -43
0 c-24 0 -50 -6 -59 -12 -24 -18 -26 -60 -5 -92 11 -15 15 -35 12 -46 -5 -15
-2 -18 8 -14 8 3 17 -2 21 -12 9 -24 -1 -30 -24 -16 -11 7 -20 8 -20 4 0 -12
-114 -3 -137 11 -7 4 -16 0 -21 -9 -6 -11 -11 -13 -16 -5 -10 15 -59 14 -75
-1 -10 -11 -11 -9 -5 5 5 15 2 17 -20 13 -14 -4 -37 -8 -51 -11 -14 -3 -25 -2
-25 2 0 5 -11 9 -25 9 -14 1 -25 -1 -25 -5 0 -3 -44 -6 -97 -6 -57 0 -101 -4
-105 -10 -5 -7 -11 -7 -15 0 -10 13 -123 17 -123 5 0 -6 -9 -6 -22 -1 -13 4
-32 7 -43 4 -11 -2 -59 -5 -107 -8 -74 -4 -88 -2 -88 10 0 20 -10 19 -27 -2
-14 -17 -14 -17 -9 0 3 9 1 17 -4 17 -6 0 -10 -7 -10 -15 0 -8 -4 -15 -10 -15
-5 0 -7 6 -4 14 4 10 0 13 -14 9 -16 -4 -26 7 -51 53 -17 32 -30 58 -28 59 3
3 502 15 613 15 l81 0 -5 30 c-4 25 0 31 23 40 14 5 42 10 60 10 33 0 34 1 37
43 l3 42 75 0 c74 0 75 0 78 -27 3 -28 2 -28 -52 -28 l-55 0 -12 -39 c-9 -32
-15 -38 -32 -33 -13 3 -18 1 -14 -5 4 -6 -5 -14 -20 -18 -17 -4 -29 -2 -34 7
-7 10 -9 9 -9 -4 0 -15 10 -18 65 -18 l66 0 -6 40 -6 40 65 0 c78 0 96 -6 96
-32 0 -19 -5 -20 -55 -16 -43 4 -55 2 -51 -8 3 -7 0 -15 -7 -18 -7 -2 34 -5
90 -5 l102 -1 3 33 c3 31 4 32 58 35 62 4 70 12 63 59 l-6 33 62 0 61 0 0 44
c0 57 9 61 108 50z m-1705 -18 c4 -11 -3 -13 -33 -9 -21 3 -50 3 -64 -1 l-26
-6 0 -139 c0 -77 4 -141 8 -143 14 -6 53 -76 45 -81 -4 -2 -17 -1 -27 2 -25 9
-108 -4 -145 -22 -28 -14 -82 -19 -231 -21 -47 -1 -87 -4 -90 -8 -3 -4 -19 -4
-34 0 l-29 8 54 44 c30 25 57 49 61 55 4 5 8 69 8 142 0 120 2 133 19 143 25
13 131 13 131 0 0 -5 -6 -10 -12 -11 -10 0 -10 -2 0 -6 6 -2 12 -14 11 -26 0
-13 -3 -16 -6 -8 -5 11 -7 11 -14 0 -7 -11 -9 -9 -9 6 0 16 -2 17 -9 6 -5 -8
-21 -15 -34 -15 -14 -1 -23 2 -21 6 3 4 0 8 -5 8 -18 0 -12 18 7 24 10 3 8 4
-7 3 -21 -2 -24 -7 -25 -41 l-1 -39 128 7 c87 5 127 4 127 -3 0 -6 -20 -11
-46 -11 -35 0 -51 -5 -65 -22 -16 -17 -19 -18 -19 -5 0 10 -8 17 -20 17 -11 0
-20 -7 -20 -15 0 -18 -21 -20 -38 -3 -17 17 -33 -2 -26 -30 6 -20 12 -22 85
-22 46 0 79 -4 79 -10 0 -6 -30 -10 -69 -10 l-69 0 -4 -30 c-5 -35 5 -37 59
-15 19 8 60 15 89 15 l54 0 0 35 c0 28 4 35 20 35 17 0 20 7 20 50 0 36 4 50
14 50 17 0 26 22 26 65 0 39 7 42 91 44 40 1 58 -3 62 -13z m-15446 -20 c5 -5
33 -135 33 -153 0 -7 -7 -13 -16 -13 -8 0 -13 4 -10 9 3 4 -6 6 -20 3 -16 -3
-29 1 -34 9 -6 9 -14 10 -32 3 -24 -11 -72 -10 -121 2 -32 7 -77 45 -77 63 0
6 -6 11 -13 11 -17 0 -44 33 -39 48 2 7 -2 12 -10 13 -7 0 -5 4 6 8 19 7 325
5 333 -3z m343 -6 c6 -8 10 -28 11 -45 l2 -30 4 28 c4 27 23 39 23 13 0 -8 7
-16 15 -20 17 -6 21 -46 4 -46 -8 0 -8 -4 1 -15 9 -10 11 -73 8 -234 -1 -121
1 -216 5 -212 9 9 15 184 16 437 1 121 3 132 20 137 24 6 29 -19 36 -192 2
-68 7 -126 10 -129 3 -3 5 62 5 144 0 152 6 181 34 171 8 -3 18 -2 21 3 8 14
452 13 460 0 3 -5 12 -10 18 -10 7 0 6 4 -3 10 -17 11 269 14 332 4 l37 -6 -6
-147 c-3 -80 -7 -147 -8 -149 -1 -1 -14 2 -27 9 -16 7 -30 25 -37 49 -8 26
-19 41 -39 48 -29 11 -147 24 -199 23 -31 -2 -32 0 -38 53 -4 29 -4 63 0 75 5
16 2 21 -10 21 -15 0 -17 -10 -13 -74 l3 -74 -110 -1 c-244 -3 -309 -20 -318
-81 -2 -14 -14 -30 -25 -36 -42 -21 -60 -46 -66 -90 -3 -24 -9 -65 -12 -90 -4
-33 -14 -54 -32 -69 -16 -13 -22 -26 -17 -34 5 -8 11 -9 17 -3 5 5 19 7 30 4
19 -5 20 -12 16 -198 -3 -188 -2 -194 17 -195 111 -9 466 5 538 21 21 4 40 4
43 -1 3 -5 25 -9 49 -9 34 0 47 -5 55 -20 10 -19 8 -20 -33 -20 -24 0 -47 -3
-51 -7 -9 -9 -44 -14 -86 -12 -93 5 -214 -2 -227 -13 -9 -7 -13 -7 -13 1 0 9
-19 11 -67 6 -38 -3 -98 -7 -135 -9 -37 -3 -72 -7 -77 -10 -5 -4 -11 -1 -13 5
-3 9 -9 9 -26 0 -12 -6 -22 -8 -22 -4 0 4 -36 9 -80 10 -44 1 -80 -2 -80 -7 0
-4 -15 -5 -32 -1 -18 4 -46 5 -63 3 -36 -5 -47 -5 -145 -2 -41 1 -140 -1 -220
-5 -90 -4 -155 -2 -170 4 l-25 10 28 0 c16 1 38 11 51 26 l23 25 205 0 c240 0
538 11 538 19 0 3 -26 5 -57 5 -50 -2 -55 0 -33 9 36 16 36 16 14 32 -15 12
-16 16 -5 24 7 5 11 13 8 18 -7 11 -97 4 -97 -8 0 -5 -10 -9 -22 -10 -22 -1
-22 -1 2 -9 23 -7 23 -8 3 -9 -16 -1 -23 -9 -26 -28 -2 -16 -4 62 -5 172 0
120 3 192 8 180 7 -16 9 -17 9 -3 1 9 4 23 7 31 3 8 -5 25 -18 37 -16 15 -19
24 -10 27 6 3 12 13 12 23 0 21 -30 36 -40 20 -9 -15 -20 12 -21 53 -1 31 -1
31 -9 7 -8 -24 -8 -24 -9 6 -1 34 -34 84 -56 84 -8 0 -17 4 -20 10 -4 6 1 7
12 3 16 -6 16 -5 4 10 -7 9 -17 14 -22 11 -5 -2 -11 6 -15 20 -3 14 -12 30
-20 37 -8 6 -11 15 -8 20 3 5 -1 6 -9 3 -16 -6 -18 5 -18 100 0 47 4 72 13 77
7 5 71 8 141 6 99 -2 130 -6 137 -17z m4896 -70 c37 -28 72 -40 60 -21 -3 5 8
8 25 6 29 -2 65 -35 39 -35 -6 0 -8 -4 -5 -10 4 -6 -11 -10 -39 -10 -25 0 -48
-5 -52 -11 -4 -8 1 -9 17 -4 21 7 22 6 10 -9 -12 -14 -10 -16 13 -16 18 0 25
4 20 12 -5 8 -2 9 10 5 21 -8 59 10 50 24 -3 6 4 7 20 3 16 -4 32 -1 41 6 8 7
15 9 15 5 0 -4 7 -2 15 5 8 6 20 8 26 4 8 -4 9 -3 5 4 -4 7 -32 12 -66 12 -32
0 -62 5 -65 10 -10 16 91 12 133 -5 20 -9 38 -12 39 -8 2 5 22 7 44 5 31 -3
40 -1 34 8 -6 9 -3 9 15 0 12 -6 24 -9 27 -6 3 3 14 -1 25 -8 11 -8 28 -12 39
-9 11 3 19 0 19 -6 0 -7 4 -10 8 -7 5 3 27 0 50 -6 34 -8 40 -13 31 -24 -15
-19 -49 -18 -49 1 0 18 -11 19 -45 3 -21 -10 -27 -9 -39 7 -13 18 -15 18 -39
3 -25 -17 -67 -14 -67 4 0 6 -6 5 -15 -2 -12 -10 -16 -9 -21 4 -6 15 -9 15
-30 -5 -24 -23 -35 -14 -11 10 17 18 -22 3 -45 -17 -15 -13 -18 -13 -18 -1 -1
10 -4 10 -14 -3 -7 -10 -16 -15 -19 -12 -8 9 -48 -15 -87 -53 -37 -35 -56 -43
-46 -18 3 9 0 15 -9 15 -8 0 -14 -5 -12 -11 1 -5 -19 -18 -44 -28 -26 -10 -57
-26 -70 -36 l-24 -17 25 7 c14 3 38 8 53 11 16 2 33 6 38 9 5 4 9 1 9 -4 0 -6
-9 -16 -20 -23 -26 -16 -26 -32 0 -25 10 3 18 0 17 -5 -3 -16 19 -20 34 -6 21
19 79 22 79 3 0 -8 -3 -15 -7 -15 -5 0 -19 -3 -32 -7 -17 -4 -22 -3 -17 5 4 7
3 12 -2 12 -6 0 -12 -7 -16 -15 -3 -8 -12 -15 -21 -15 -8 0 -15 -5 -15 -11 0
-6 7 -8 17 -5 10 4 14 4 10 0 -4 -4 -2 -14 5 -21 9 -11 2 -10 -24 3 -23 11
-43 14 -55 9 -10 -5 -28 -8 -40 -8 -13 0 -23 -1 -23 -3 0 -6 39 -44 44 -44 3
0 17 -11 32 -25 18 -17 22 -25 12 -25 -8 0 -23 9 -34 21 -30 33 -47 39 -64 21
-13 -14 -12 -15 4 -9 12 5 16 3 13 -5 -2 -7 -14 -12 -25 -10 -28 4 -29 -14 -2
-28 11 -6 18 -15 15 -20 -6 -9 33 -5 43 5 3 2 12 -1 21 -7 10 -8 9 -4 -3 10
-23 27 -7 29 24 4 l23 -19 -33 -23 c-24 -17 -34 -20 -40 -11 -5 9 -15 3 -34
-21 -22 -26 -26 -29 -21 -10 7 25 -6 29 -25 7 -7 -8 -18 -15 -25 -15 -8 0 -16
-6 -18 -12 -4 -10 -8 -9 -16 2 -10 13 -11 13 -11 0 0 -21 -37 -44 -43 -27 -3
7 -6 -1 -6 -16 -1 -16 -5 -26 -10 -23 -10 7 -21 -17 -21 -45 0 -12 4 -17 11
-14 7 5 8 -6 5 -32 -4 -30 -2 -26 14 22 12 33 25 64 30 69 13 13 13 -4 0 -41
-9 -26 -9 -27 5 -9 18 23 19 18 5 -20 -9 -24 -9 -25 5 -14 8 7 15 19 15 26 0
8 3 14 8 14 4 0 18 16 31 35 26 39 42 46 34 15 -3 -12 -1 -20 5 -18 5 2 10 -1
10 -7 0 -5 -4 -9 -9 -7 -5 1 -9 0 -9 -3 0 -11 26 -50 38 -58 10 -7 10 -12 1
-23 -6 -8 -8 -14 -4 -14 4 0 2 -6 -4 -14 -7 -9 -8 -17 -3 -20 13 -8 14 -117 1
-132 -7 -9 -7 -19 1 -35 8 -14 8 -19 1 -15 -6 4 -11 1 -11 -6 0 -7 10 -19 22
-27 l22 -14 -24 -10 c-15 -5 -20 -11 -12 -14 6 -3 12 -13 12 -22 0 -10 12 -34
28 -54 l27 -36 128 -1 127 0 0 30 c0 17 5 30 10 30 6 0 10 -13 10 -30 0 -25 4
-30 25 -30 28 0 75 -20 75 -32 0 -4 9 -8 19 -8 27 0 35 -17 11 -23 -11 -3 -20
0 -20 6 0 8 -3 8 -9 -1 -11 -17 -93 -22 -87 -5 4 9 -25 11 -127 9 -73 -2 -132
-4 -132 -5 0 -2 -291 -2 -740 -2 -192 0 -383 0 -422 -2 -40 -1 -73 0 -73 4 0
3 -23 2 -50 -2 -28 -4 -98 -8 -156 -8 -83 0 -106 3 -111 15 -3 8 -4 17 -1 19
2 2 66 8 143 13 l140 9 -100 3 c-155 4 -214 8 -230 14 -23 9 -19 53 6 59 11 3
120 7 242 8 122 1 236 3 252 3 17 0 175 -3 353 -7 195 -5 321 -4 318 2 -3 5 1
14 9 21 10 9 15 9 15 1 0 -29 19 -6 29 35 9 36 9 50 -1 62 -7 10 -13 19 -15
21 -1 2 -21 -13 -43 -33 -22 -20 -44 -36 -49 -36 -8 0 -6 135 4 150 3 4 2 16
-1 24 -6 15 -9 15 -33 0 l-26 -17 28 30 c15 16 27 34 27 40 0 7 10 19 22 27
30 21 14 21 -17 0 -15 -10 -25 -12 -25 -5 0 6 5 11 10 11 6 0 10 9 10 20 0 12
12 26 30 35 17 9 30 18 30 21 0 2 -9 0 -19 -6 -13 -6 -28 -7 -43 -1 -13 6 -18
10 -12 10 5 1 19 8 30 17 18 14 18 15 -6 10 -22 -5 -21 -4 5 9 17 8 35 14 41
15 6 0 17 7 24 15 7 8 29 15 49 15 20 0 43 5 51 11 11 8 2 9 -35 4 -27 -3 -67
-8 -88 -10 -20 -2 -46 -9 -56 -15 -24 -12 -31 -13 -31 -1 0 5 15 11 33 15 24
5 29 9 17 16 -12 7 -11 10 5 16 11 4 22 11 25 14 8 11 80 20 80 10 0 -4 -6
-11 -12 -13 -7 -3 13 -6 44 -6 l58 -1 -12 25 c-11 24 -14 25 -72 20 -44 -5
-57 -4 -46 4 8 6 27 11 43 11 15 0 27 5 27 10 0 6 6 10 13 10 15 0 16 3 21 79
4 62 16 75 84 94 28 7 41 16 38 24 -4 9 4 13 22 14 24 0 25 1 7 9 -17 7 -17 9
-2 9 9 1 17 6 17 11 0 6 6 10 14 10 18 0 124 62 130 77 3 8 -7 8 -36 -3 -54
-19 -68 -18 -39 3 23 15 23 17 6 30 -25 18 -35 16 -35 -5 0 -9 -9 -23 -20 -30
-24 -14 -27 0 -5 18 13 10 13 15 3 21 -7 4 -17 4 -23 -1 -6 -5 -17 2 -28 16
-10 13 -17 24 -15 24 2 0 18 -4 36 -9 17 -5 32 -6 32 -2 0 4 16 6 35 5 20 -2
48 1 62 7 25 9 25 10 7 24 -17 13 -17 14 -2 15 9 0 20 -4 23 -10 3 -5 16 -10
27 -10 14 0 5 8 -27 26 -69 36 -93 54 -74 54 8 0 33 -13 55 -30z m1312 -336
c-3 -29 -1 -51 4 -48 4 3 13 -6 20 -20 17 -38 28 -31 16 10 -12 46 -5 54 12
12 7 -18 19 -40 25 -48 26 -33 23 -102 -4 -86 -17 11 -13 26 5 19 14 -5 14 -3
3 15 -13 21 -14 21 -21 2 -4 -11 -10 -20 -13 -20 -14 0 -51 44 -62 73 -7 19
-12 25 -12 14 -1 -10 3 -26 8 -35 4 -9 11 -30 15 -47 5 -25 2 -23 -19 15 -13
25 -24 54 -25 65 0 11 -7 33 -15 49 -21 40 -18 56 5 26 23 -30 26 -20 5 20 -9
18 -11 31 -5 35 6 3 10 23 10 43 l0 37 26 -39 c22 -33 26 -46 22 -92z m4387
-154 c3 -5 15 -10 26 -10 10 0 19 -6 19 -14 0 -11 -11 -14 -40 -12 -36 3 -41
1 -46 -23 -10 -47 -13 -51 -39 -52 -14 -1 -31 -2 -37 -3 -7 -1 -18 -21 -23
-46 -10 -43 -13 -45 -50 -50 -39 -5 -40 -6 -40 -44 0 -39 0 -40 51 -51 27 -6
56 -9 62 -7 7 2 12 -1 12 -6 0 -16 -61 -26 -70 -12 -4 7 -12 10 -17 7 -10 -6
-98 -19 -145 -21 -16 0 -28 -7 -28 -13 0 -7 -8 -14 -17 -14 -10 -1 -27 -3 -38
-4 -11 -1 -30 -2 -42 -3 -19 -2 -23 -8 -23 -36 0 -42 -19 -58 -73 -60 -41 -2
-42 -3 -47 -40 -5 -40 -29 -59 -59 -48 -17 6 -31 -15 -31 -49 0 -35 37 -64 83
-64 20 0 36 -4 35 -10 -2 -5 -15 -9 -30 -7 -17 2 -28 -2 -28 -9 0 -8 -3 -9
-13 0 -8 6 -29 9 -48 7 -19 -2 -37 0 -40 5 -3 6 -16 6 -32 0 -17 -7 -28 -7
-32 -1 -4 6 -20 4 -41 -5 -32 -13 -37 -13 -51 0 -8 8 -20 15 -26 15 -9 0 -9
-2 0 -8 6 -4 -16 -8 -50 -9 -34 -1 -81 -3 -103 -5 -30 -2 -40 0 -37 10 3 6 0
12 -6 12 -6 0 -11 -5 -11 -11 0 -7 -35 -8 -112 -4 -99 6 -152 7 -176 4 -4 -1
-35 -1 -69 0 -51 1 -61 4 -57 16 4 9 19 15 39 15 18 0 35 4 37 9 2 4 166 11
365 15 199 3 368 8 375 11 7 3 14 20 14 37 1 18 7 34 13 36 6 2 18 10 26 19 9
9 15 10 15 3 0 -19 24 12 35 45 9 27 16 30 55 33 49 4 60 13 60 53 0 35 15 46
72 51 33 4 53 12 65 27 16 19 37 26 96 30 12 1 17 10 17 32 0 42 17 69 43 69
32 0 44 11 52 47 6 31 18 46 40 49 6 0 20 2 32 2 17 2 23 10 28 42 8 47 44 76
60 50z m-3395 -34 c-5 -13 -6 -27 -2 -32 4 -4 1 -4 -5 0 -9 5 -11 2 -6 -10 6
-16 8 -16 16 4 9 20 35 37 44 28 3 -3 -4 -15 -16 -27 -27 -30 -17 -39 12 -11
43 41 41 22 -2 -22 -31 -31 -39 -45 -29 -50 10 -4 10 -7 1 -12 -7 -3 -40 -23
-74 -45 -34 -22 -64 -38 -67 -35 -9 10 -93 -114 -86 -127 4 -7 4 -9 -1 -5 -4
4 -17 -2 -28 -15 l-19 -22 7 25 c9 31 85 154 98 159 5 2 4 6 -2 10 -15 10 9
59 27 53 8 -2 10 5 6 27 -5 22 -3 31 6 31 7 0 21 10 31 22 11 11 22 18 26 14
4 -4 -8 -21 -26 -38 -23 -21 -29 -33 -21 -38 7 -4 10 -12 6 -18 -3 -6 -1 -14
5 -18 18 -11 69 51 69 84 -1 24 -3 23 -21 -17 -15 -32 -23 -40 -29 -30 -5 7
-6 16 -2 19 13 10 67 85 68 95 2 21 4 25 14 25 6 0 6 -9 0 -24z m7429 -106
c15 0 42 7 59 15 40 20 115 14 170 -14 23 -12 50 -21 62 -21 28 0 42 -42 36
-104 -3 -28 -8 -80 -11 -115 -3 -36 -7 -67 -9 -70 -2 -3 0 -15 4 -26 4 -11 4
-32 -1 -47 -4 -16 -5 -28 -1 -28 9 0 9 -166 0 -175 -3 -4 0 -22 8 -40 14 -34
9 -135 -7 -135 -5 0 -9 -12 -8 -27 0 -23 2 -24 8 -10 6 17 8 17 20 4 10 -13 9
-21 -3 -46 -17 -32 -23 -67 -7 -43 7 11 9 11 14 -2 3 -8 2 -18 -4 -22 -7 -4
-6 -10 0 -18 6 -7 9 -15 7 -17 -3 -2 -8 -40 -11 -84 -4 -44 -9 -83 -11 -87 -3
-5 0 -8 6 -8 8 0 11 -24 9 -74 -1 -40 1 -78 5 -85 4 -7 5 -48 2 -93 -5 -58 -3
-85 6 -95 11 -14 8 -15 -22 -8 -19 4 -41 12 -47 17 -9 8 -13 6 -13 -5 0 -11
-12 -15 -57 -14 -32 1 -95 -4 -140 -9 -57 -7 -84 -7 -88 1 -3 6 -7 7 -10 0 -5
-9 -222 -12 -231 -3 -2 3 -52 3 -111 0 -141 -5 -140 -5 -200 -2 -29 2 -53 6
-53 9 0 3 -15 7 -34 8 -23 2 -39 -4 -51 -17 -22 -24 -37 -26 -28 -4 5 14 2 15
-18 8 -13 -5 -67 -9 -119 -9 -52 -1 -102 -4 -110 -7 -14 -6 -118 -18 -197 -23
-18 -1 -33 2 -33 6 0 4 -16 6 -35 5 -27 -3 -35 1 -35 13 0 14 -2 14 -10 1 -8
-13 -13 -13 -39 3 -37 22 -78 21 -116 -3 -68 -43 -71 -45 -56 -27 11 15 11 17
-2 17 -9 0 -19 -5 -23 -12 -5 -8 -10 -6 -15 8 -7 17 -8 17 -8 2 -1 -10 -8 -18
-16 -18 -11 0 -13 8 -8 30 3 19 1 30 -6 30 -6 0 -11 -6 -11 -14 0 -8 -11 -17
-24 -20 -14 -3 -28 -15 -31 -26 -3 -11 -13 -20 -22 -20 -12 0 -13 3 -4 14 9
11 6 12 -14 8 -15 -2 -25 0 -25 7 0 6 5 11 10 11 6 0 5 6 -2 14 -14 15 -43 2
-32 -15 7 -12 0 -11 -30 2 -20 10 -32 8 -63 -8 -21 -11 -44 -18 -52 -15 -11 4
-11 6 0 13 7 4 10 11 6 15 -4 4 -15 0 -25 -9 -10 -9 -30 -14 -47 -12 -17 1
-36 -2 -42 -7 -12 -10 -14 -8 -12 9 1 8 -63 35 -69 28 -3 -3 1 -5 8 -5 7 0 10
-3 7 -7 -4 -4 -23 9 -42 27 -19 19 -35 29 -35 23 0 -7 5 -15 10 -18 6 -3 10
-19 10 -36 0 -22 -5 -29 -19 -29 -11 0 -23 5 -26 10 -4 6 -11 7 -17 4 -7 -5
-9 -1 -5 9 3 8 -1 21 -9 28 -10 8 -12 22 -8 44 3 19 1 35 -5 39 -6 4 -9 1 -5
-7 5 -13 -22 -44 -31 -35 -8 7 15 75 29 87 9 8 93 13 242 16 312 6 623 15 779
21 72 3 344 6 605 6 450 -1 476 0 498 18 l23 19 -6 393 c-5 304 -3 449 9 643
8 138 19 266 23 285 l8 35 3 -37 c3 -34 6 -38 31 -38z m-8422 29 c-1 -12 -11
-25 -24 -30 -13 -5 -23 -12 -23 -16 0 -5 -7 -17 -16 -28 -11 -15 -17 -17 -23
-7 -6 10 -10 10 -21 -3 -10 -12 -10 -15 4 -15 23 0 20 -6 -19 -47 -19 -20 -35
-30 -35 -23 0 7 -3 11 -6 8 -3 -4 0 -16 6 -28 7 -12 8 -20 3 -18 -4 3 -19 -8
-32 -25 l-25 -30 23 13 c23 12 23 12 7 -11 -9 -13 -16 -32 -16 -42 0 -13 -5
-17 -15 -13 -11 4 -25 -15 -51 -69 -19 -41 -37 -75 -38 -75 -12 0 16 94 36
121 22 30 34 59 44 108 1 7 12 23 23 35 11 12 22 32 24 44 2 12 6 24 10 28 3
3 -2 18 -13 33 -10 14 -21 37 -25 51 l-6 25 20 -24 c12 -13 21 -19 21 -15 0 5
10 -2 21 -16 20 -24 20 -24 14 -2 -5 17 -2 22 12 22 24 0 66 29 43 30 -9 0
-21 -5 -28 -12 -8 -8 -12 -8 -12 -1 0 10 23 25 42 27 4 1 13 7 20 14 6 6 22
12 34 12 17 0 22 -5 21 -21z m5024 -273 c31 -1 62 -6 70 -13 8 -6 48 -34 89
-61 77 -50 201 -160 165 -147 -11 4 -45 13 -76 20 -126 28 -165 55 -79 55 40
0 61 14 36 23 -8 3 -16 1 -18 -5 -3 -7 -19 -8 -46 -3 -23 4 -40 11 -37 16 3 4
-9 13 -27 18 -26 7 -28 9 -10 10 13 1 20 6 17 11 -9 15 21 12 34 -3 6 -8 8
-17 4 -20 -3 -4 3 -7 15 -7 11 0 27 -3 36 -6 9 -3 16 -1 16 5 0 6 -9 11 -20
11 -11 0 -20 4 -20 9 0 5 -8 11 -17 15 -10 3 -26 11 -36 18 -14 11 -19 11 -26
-1 -7 -10 -13 -11 -27 -2 -11 6 -13 11 -6 11 24 0 12 20 -13 20 -14 0 -25 -5
-25 -11 0 -6 -10 -9 -22 -7 -13 2 -22 9 -20 16 2 9 -2 11 -10 5 -16 -9 -78
-11 -78 -1 0 4 10 10 21 13 17 6 19 9 8 16 -9 6 -3 7 16 2 17 -3 55 -7 86 -7z
m-3596 -25 c22 -10 51 -29 65 -42 17 -16 37 -24 61 -24 l36 0 -28 34 c-32 39
-30 50 6 43 20 -3 24 -9 21 -28 -4 -18 4 -30 30 -51 30 -22 33 -28 20 -35 -14
-8 -12 -13 14 -35 35 -29 34 -40 -2 -23 -22 11 -22 10 -4 -4 17 -14 18 -16 3
-16 -9 0 -17 -4 -17 -9 0 -6 15 -4 33 4 19 8 43 12 54 9 12 -3 24 -1 27 5 4 6
23 11 42 11 41 0 38 -15 -6 -23 -16 -4 -30 -11 -30 -17 0 -13 47 -13 55 0 7
11 55 14 55 4 0 -4 -10 -15 -22 -25 -11 -11 -18 -19 -14 -19 15 0 52 24 65 43
14 20 14 20 23 -2 6 -19 13 -22 33 -17 14 4 25 2 25 -3 0 -13 -27 -21 -45 -15
-8 4 -15 2 -15 -3 0 -6 -20 -20 -44 -33 -25 -12 -42 -28 -40 -34 3 -7 -4 -12
-16 -12 -27 0 -25 8 10 31 16 11 30 24 30 28 0 9 -35 -8 -69 -34 -34 -27 -44
-23 -24 7 17 26 17 27 -6 19 -16 -5 -21 -4 -17 4 4 6 13 11 19 11 7 0 21 7 32
16 19 14 19 15 -5 12 -14 -2 -28 -7 -32 -12 -8 -12 -78 -18 -78 -7 0 4 11 13
25 19 19 9 25 9 25 0 0 -9 3 -9 12 0 24 24 -3 24 -56 1 l-55 -24 32 -32 c32
-34 30 -38 -20 -36 -15 1 -18 -33 -4 -42 6 -3 17 -20 25 -38 l16 -32 -31 34
c-21 22 -29 27 -26 15 3 -10 9 -37 12 -59 6 -37 5 -39 -9 -21 -9 11 -16 32
-16 47 0 15 -5 31 -11 35 -7 4 -9 21 -5 45 3 21 2 40 -3 43 -4 3 -11 33 -15
67 -3 35 -12 72 -20 83 -9 14 -10 29 -5 45 8 19 6 22 -7 17 -9 -3 -30 5 -50
20 -35 27 -41 26 -24 -5 6 -12 6 -30 0 -50 -5 -19 -5 -29 1 -26 5 4 9 16 9 28
0 17 2 19 9 8 5 -8 8 -28 7 -45 -4 -49 -96 -131 -96 -85 0 5 7 9 15 9 16 0 35
30 35 56 0 19 -45 65 -55 55 -4 -3 -5 20 -3 52 3 61 -6 74 -22 31 -9 -22 -13
-24 -25 -14 -8 7 -15 23 -15 36 0 20 5 24 33 24 17 0 50 -9 72 -19z m-1435
-85 l5 -58 38 26 39 27 33 -28 c19 -16 34 -31 34 -35 1 -5 -23 -8 -51 -8 -81
0 -90 -15 -18 -29 33 -7 58 -16 55 -21 -3 -5 -14 -7 -25 -5 -11 2 -20 0 -20
-4 0 -12 -49 -20 -52 -10 -3 10 -123 28 -211 32 -31 2 -63 9 -70 16 -10 11 -8
12 8 8 18 -5 120 -10 168 -8 15 1 17 12 17 92 l0 91 23 -14 c17 -12 23 -28 27
-72z m14905 -475 c3 -6 -14 -11 -37 -13 -41 -3 -43 -4 -43 -36 -1 -19 3 -36 7
-38 16 -10 -4 -24 -33 -24 -23 0 -30 -4 -27 -17 1 -10 -2 -24 -7 -32 -5 -10
-4 -16 3 -19 22 -7 12 -19 -20 -27 -45 -11 -51 -12 -68 -14 -32 -3 40 -50 87
-56 27 -4 66 -17 88 -30 22 -12 53 -25 70 -29 31 -8 55 -23 55 -36 0 -4 -18
-10 -39 -14 -22 -3 -41 -11 -43 -18 -3 -9 -15 -7 -42 6 -25 12 -51 16 -72 13
-19 -3 -36 -1 -40 4 -9 15 -84 8 -84 -8 0 -7 -4 -13 -10 -13 -5 0 -9 6 -7 12
2 12 -23 15 -138 17 -16 0 -33 -5 -37 -12 -7 -11 -58 -14 -330 -21 -48 -1 -63
-11 -30 -19 10 -3 5 -5 -12 -6 -16 0 -38 6 -47 15 -17 15 -20 15 -43 0 -31
-20 -40 -20 -33 -1 5 12 2 12 -21 3 -15 -7 -31 -15 -37 -20 -13 -12 -59 -10
-72 3 -8 8 -22 8 -49 0 -48 -13 -68 -13 -35 0 37 14 13 31 -27 19 -18 -5 -39
-7 -46 -4 -7 3 -19 -2 -26 -11 -7 -8 -24 -15 -39 -14 -22 0 -23 2 -7 8 19 7
19 8 1 15 -12 4 -22 1 -27 -9 -5 -8 -14 -15 -20 -15 -7 0 -7 4 0 13 8 9 6 16
-8 24 -14 9 -19 9 -23 -1 -4 -9 -21 -12 -54 -9 -26 2 -55 3 -63 3 -8 -1 -27
-2 -42 -2 -16 0 -28 -5 -28 -9 0 -16 -28 -10 -34 7 -5 12 -13 15 -34 10 -61
-15 -101 -14 -114 2 -10 12 -10 16 0 19 17 6 15 23 -4 45 -16 16 -15 18 6 26
15 6 19 11 12 16 -36 22 8 26 296 26 169 0 424 5 567 10 143 5 333 12 422 14
90 3 167 8 173 11 6 4 8 15 5 25 -6 19 17 30 66 30 25 0 26 2 19 41 -8 42 -6
44 35 51 15 3 20 11 21 39 0 19 4 41 8 47 9 14 102 16 111 3z m-1890 -42 c5
-5 -11 -9 -38 -9 -50 0 -54 -5 -48 -67 1 -18 -4 -23 -20 -23 -36 0 -59 -28
-52 -61 5 -25 3 -29 -18 -29 -33 0 -46 -11 -54 -41 -6 -24 -3 -28 38 -44 25
-9 51 -15 59 -13 7 3 37 -8 67 -23 30 -16 61 -29 70 -29 15 0 47 -37 39 -45
-2 -2 -16 -7 -32 -11 -21 -5 -27 -4 -22 5 4 6 11 9 16 6 5 -3 11 -1 14 4 10
15 -53 24 -69 11 -8 -7 -22 -10 -30 -6 -8 3 -15 1 -15 -4 0 -5 -41 -8 -95 -7
-52 2 -95 0 -95 -5 0 -4 -9 -8 -21 -8 -11 0 -17 5 -14 10 3 6 -3 10 -14 10
-10 0 -21 -5 -23 -11 -5 -16 -88 -25 -88 -9 0 7 -6 10 -12 7 -7 -3 -22 -8 -33
-12 -16 -5 -17 -5 -5 4 20 14 9 22 -19 14 -12 -3 -18 -9 -13 -12 6 -3 -16 -6
-47 -6 -34 0 -65 6 -75 14 -13 11 -22 11 -46 1 -16 -7 -37 -9 -46 -6 -9 4 -22
1 -30 -5 -7 -6 -21 -9 -31 -6 -15 3 -14 6 7 16 20 9 8 10 -68 6 -65 -4 -98 -2
-108 6 -11 9 -14 8 -14 -5 0 -10 -5 -14 -11 -10 -19 11 -132 5 -142 -9 -7 -9
-10 -9 -14 1 -2 6 -16 12 -29 12 -14 0 -22 -4 -19 -10 3 -5 1 -10 -4 -10 -6 0
-11 4 -11 9 0 5 -10 9 -22 10 -13 0 -36 2 -53 2 -48 3 -65 0 -65 -12 0 -6 9
-8 20 -4 11 3 20 2 20 -3 0 -5 -22 -9 -49 -9 -28 0 -48 4 -45 9 3 4 11 8 17 8
7 0 21 8 32 16 19 14 17 15 -20 9 -22 -4 -44 -11 -50 -16 -13 -12 -145 -11
-145 1 0 6 -12 10 -27 9 -27 0 -27 -1 -5 -9 28 -12 29 -24 0 -17 -12 3 -29 2
-39 -4 -15 -8 -17 -6 -12 8 5 13 3 15 -11 10 -10 -4 -24 -1 -33 9 -8 8 -18 12
-21 9 -4 -3 0 -10 8 -15 14 -9 7 -14 -13 -11 -4 1 -17 -3 -27 -9 -11 -6 -20
-7 -20 -2 0 13 -57 13 -117 0 -44 -9 -54 -9 -68 6 -9 9 -23 16 -31 16 -8 0
-17 7 -21 16 -3 9 -18 28 -32 42 l-26 27 23 3 c17 3 21 8 17 21 -5 16 6 19
107 25 150 9 990 25 1351 25 269 1 287 2 287 19 0 26 20 42 51 42 26 0 28 4
31 42 3 39 6 43 33 48 27 5 30 9 33 47 3 34 7 42 25 45 31 5 100 -3 112 -13z
m-15366 -308 c2 -76 -15 -111 -54 -111 -17 0 -25 11 -38 53 -9 30 -17 66 -17
80 0 23 5 27 28 28 l27 1 -25 8 c-20 6 -15 8 26 9 l51 1 2 -69z m1828 -154 c9
4 14 2 11 -3 -23 -41 -28 -72 -18 -98 8 -21 -12 -64 -28 -59 -4 1 -6 -14 -4
-34 2 -25 -1 -34 -10 -31 -16 6 -38 -35 -38 -71 0 -14 -4 -37 -8 -51 -6 -21
-8 -19 -12 20 -5 44 15 128 34 141 5 4 6 13 4 20 -3 9 -11 1 -22 -19 -23 -45
-32 -33 -17 20 16 54 26 73 37 73 19 0 34 17 34 37 0 14 -5 18 -16 14 -15 -6
-15 -4 -2 16 8 13 19 30 23 38 8 13 10 13 13 -2 2 -11 9 -15 19 -11z m6414
-78 c32 -48 31 -56 -2 -39 -19 11 -21 10 -16 -4 9 -22 2 -20 -23 6 -26 29 -26
5 1 -33 25 -36 17 -37 -19 -4 -37 34 -61 33 -27 -2 8 -8 13 -19 10 -24 -4 -5
-1 -9 4 -9 6 0 11 -4 11 -10 0 -5 -16 -10 -35 -10 -19 0 -35 5 -35 11 0 6 -5
7 -12 2 -7 -4 -49 -8 -93 -9 -44 0 -120 -4 -168 -7 -85 -7 -88 -6 -82 13 8 24
-3 26 -20 4 -14 -20 -105 -37 -105 -19 0 6 -13 11 -30 11 -16 0 -30 -3 -30 -7
0 -16 -39 -18 -115 -4 -53 9 -82 10 -86 3 -4 -6 -32 -8 -68 -5 -34 2 -64 0
-67 -4 -8 -13 -132 -11 -170 3 -28 10 -36 9 -51 -4 -20 -17 -96 -14 -111 6
-11 14 -64 148 -60 151 2 2 158 6 348 10 190 4 435 10 545 14 110 4 262 6 338
5 l139 -2 29 -43z m2844 -85 c13 -9 29 -12 36 -8 12 7 10 -9 -7 -80 -5 -22 -4
-27 6 -21 10 6 12 1 8 -19 -3 -14 -1 -29 4 -32 5 -3 7 -18 3 -33 -10 -46 -11
-191 -1 -191 5 0 7 -2 4 -5 -3 -3 -12 -3 -20 0 -10 4 -17 26 -21 68 -4 34 -11
104 -17 156 -8 74 -7 96 2 103 9 5 8 8 -4 8 -11 0 -18 8 -18 19 0 11 -3 26 -6
35 -8 20 0 20 31 0z m-4707 -72 c3 -36 0 -42 -20 -46 -107 -21 -141 -30 -128
-34 8 -3 18 -10 23 -16 5 -7 13 -4 25 11 11 14 31 22 59 25 l42 3 3 -65 c2
-36 8 -73 12 -83 6 -12 5 -16 -5 -12 -12 4 -14 -77 -15 -492 -2 -585 -9 -733
-35 -820 -11 -35 -25 -63 -30 -63 -6 0 -8 7 -5 16 3 9 2 12 -5 8 -6 -3 -9 -15
-6 -25 3 -10 1 -22 -4 -25 -5 -3 -7 -10 -4 -15 4 -5 1 -9 -5 -9 -7 0 -10 12
-8 27 2 22 -2 28 -22 33 -24 6 -24 6 -5 18 19 12 19 13 -2 7 -33 -9 -48 4 -26
21 11 8 13 14 6 15 -7 1 -17 3 -23 4 -5 1 -17 3 -25 4 -8 0 -15 5 -15 11 0 5
3 9 8 9 27 -5 34 1 21 17 -14 17 -20 53 -22 134 -3 85 14 650 19 665 8 21 -13
19 -25 -2 -17 -30 -23 -8 -31 114 -8 124 -28 199 -74 276 -68 117 -184 180
-323 178 -128 -2 -225 -30 -300 -87 -18 -14 -38 -22 -45 -18 -7 4 -8 3 -4 -5
5 -7 -6 -27 -26 -49 -18 -20 -40 -52 -47 -70 -9 -21 -17 -29 -21 -22 -4 6 -7
-1 -8 -17 0 -15 -7 -55 -16 -88 -9 -33 -16 -80 -17 -105 0 -25 -4 -54 -8 -65
-6 -15 -10 -9 -15 30 -7 43 -10 47 -21 32 -7 -9 -17 -17 -22 -17 -6 0 -8 -11
-5 -25 2 -14 11 -25 18 -25 8 0 14 -7 14 -16 0 -10 6 -14 15 -10 8 3 15 1 15
-4 0 -6 -5 -10 -11 -10 -7 0 -9 -10 -5 -25 5 -19 3 -23 -9 -19 -8 4 -15 10
-15 15 0 5 -11 9 -25 9 -18 0 -25 -5 -25 -20 0 -11 7 -20 16 -20 8 0 12 -4 9
-10 -3 -5 -1 -10 6 -10 10 0 10 -3 1 -12 -14 -14 -16 -32 -3 -24 5 3 12 -1 15
-10 9 -24 7 -66 -3 -60 -16 10 -41 -5 -41 -25 0 -10 7 -19 15 -19 13 0 13 -2
3 -14 -10 -10 -15 -11 -21 -2 -5 6 -6 -1 -2 -17 4 -20 2 -27 -7 -25 -14 3 -18
-3 -18 -23 0 -8 4 -8 14 0 11 9 15 8 20 -6 5 -12 -1 -23 -18 -36 -28 -20 -37
-63 -11 -53 11 4 15 -2 15 -28 0 -25 -5 -35 -20 -39 -11 -3 -20 -13 -20 -23 0
-16 1 -16 19 0 10 9 25 14 33 11 28 -11 40 19 26 63 -9 30 -16 38 -30 34 -10
-2 -18 1 -18 7 0 6 6 11 14 11 8 0 18 10 22 22 6 20 7 21 17 2 6 -10 14 -22
19 -25 10 -7 5 -169 -5 -186 -4 -7 -1 -31 7 -54 14 -39 13 -42 -8 -63 -12 -11
-25 -29 -29 -38 -3 -10 -12 -18 -19 -18 -9 0 -9 3 2 10 12 8 12 10 -2 15 -9 4
-14 13 -11 21 3 8 0 14 -6 14 -6 0 -11 -7 -11 -15 0 -8 -5 -15 -11 -15 -5 0
-7 -4 -4 -10 3 -5 1 -10 -4 -10 -15 0 -14 135 1 160 10 15 9 24 -2 44 -16 31
-37 20 -42 -22 -2 -16 -10 -28 -21 -30 -17 -3 -18 13 -12 350 3 194 8 368 11
388 8 45 22 72 34 65 5 -3 12 0 16 6 4 7 3 9 -3 6 -5 -4 -20 3 -32 14 -18 17
-20 24 -10 35 9 10 9 21 2 37 -6 12 -11 61 -12 107 -1 47 -7 99 -13 117 -9 26
-9 34 5 48 10 9 17 32 17 54 l0 38 93 3 c50 1 106 2 122 1 17 -1 112 -3 211
-4 166 -2 184 -4 204 -22 l22 -20 -33 -6 c-31 -6 -30 -6 14 -8 37 -1 47 2 47
15 0 11 6 13 19 9 13 -4 24 1 33 13 11 17 27 20 103 21 129 3 169 5 180 12 6
4 55 5 110 4 55 -1 120 1 145 5 62 10 65 9 68 -38z m-5274 -314 c-4 -6 -2 -8
3 -5 6 4 30 9 53 12 24 3 47 8 51 11 4 2 12 -3 18 -13 9 -19 75 -42 133 -48
18 -2 49 -6 68 -10 26 -4 30 -3 15 4 -18 8 -15 11 22 27 23 9 40 20 38 24 -3
4 27 8 65 8 41 1 70 -3 70 -9 0 -6 5 -7 13 -2 6 4 21 8 32 8 11 0 25 4 31 8
15 9 8 -50 -8 -72 -8 -10 -4 -9 10 3 17 14 22 16 22 5 1 -8 8 0 17 16 24 42
30 9 9 -51 -8 -24 -11 -42 -7 -40 5 3 14 26 21 51 16 56 35 75 44 43 5 -20 8
-21 19 -8 6 9 24 15 40 15 18 -1 27 4 27 15 0 13 19 15 125 14 69 0 128 -4
132 -7 3 -4 12 -2 19 4 10 8 19 6 36 -5 26 -18 64 -21 74 -5 4 7 9 8 17 0 7
-7 6 -15 -3 -25 -8 -11 -10 -30 -6 -59 5 -29 2 -55 -9 -80 -14 -35 -14 -41 1
-74 14 -29 15 -39 5 -55 -10 -15 -10 -23 0 -34 8 -10 14 -58 16 -127 2 -62 5
-127 7 -144 5 -31 3 -33 -27 -33 -40 0 -77 -24 -77 -50 0 -23 34 -45 70 -45
20 0 25 -5 24 -25 -1 -14 -4 -34 -8 -45 -7 -18 -6 -18 4 -2 6 9 15 17 20 17
15 0 12 -38 -2 -43 -9 -4 -10 -8 -2 -14 6 -4 12 -51 13 -108 1 -55 3 -107 3
-115 2 -32 -2 -51 -11 -46 -5 4 -11 2 -13 -3 -3 -11 -108 -22 -108 -12 0 4 7
17 16 30 15 21 15 24 2 32 -10 5 -15 21 -14 41 2 35 3 35 68 24 31 -5 47 19
17 27 -12 3 -19 14 -19 29 0 16 -9 29 -24 38 -27 14 -42 40 -24 40 7 0 4 6 -6
13 -16 12 -19 33 -22 158 -4 180 -1 199 34 200 17 1 21 3 10 6 -10 2 -18 11
-18 18 0 8 -10 15 -22 18 -21 3 -20 5 9 16 17 7 34 19 37 27 7 17 1 18 -27 1
-28 -17 -49 -16 -55 2 -3 8 0 11 6 7 6 -3 13 -2 16 3 4 5 2 12 -3 15 -5 4 -12
2 -15 -3 -4 -5 -20 -2 -39 7 -33 17 -79 24 -71 10 3 -4 13 -8 23 -8 10 0 30
-6 44 -13 28 -15 22 -30 -23 -58 -24 -16 -26 -15 -44 8 -10 14 -19 35 -20 48
0 13 -4 23 -7 22 -4 -1 -33 25 -65 58 -75 78 -153 110 -259 109 -127 -2 -212
-40 -312 -141 -58 -59 -77 -73 -102 -73 -17 0 -31 5 -31 10 0 6 -5 10 -11 10
-6 0 -9 -6 -6 -14 3 -8 1 -29 -5 -48 -6 -18 -13 -39 -15 -47 -2 -9 -7 -10 -16
-4 -8 7 -18 4 -29 -9 -12 -12 -14 -18 -5 -18 8 0 7 -4 -3 -10 -10 -6 -11 -10
-2 -10 6 0 11 -3 11 -7 -3 -21 3 -31 19 -29 15 1 17 -8 16 -65 -1 -61 -20
-129 -35 -129 -4 0 -9 -9 -12 -19 -3 -14 -1 -18 10 -14 13 5 12 1 -2 -27 -9
-18 -12 -29 -6 -26 15 10 14 -7 -4 -40 -8 -16 -15 -24 -15 -18 0 7 -20 15 -44
18 -26 4 -47 13 -50 22 -10 26 -7 142 4 149 6 3 10 15 10 25 0 10 5 22 11 26
7 4 9 0 5 -14 -5 -15 -1 -21 16 -25 28 -8 32 -3 19 22 -9 17 -8 22 9 31 11 6
17 16 14 22 -5 7 -1 9 9 5 11 -4 17 -1 17 9 0 8 -11 19 -25 24 -20 8 -25 16
-25 44 0 25 -5 35 -19 39 -11 2 -24 0 -30 -6 -8 -8 -11 10 -11 64 0 41 5 80
11 86 8 8 8 17 -1 32 -7 15 -9 52 -5 114 4 51 8 124 10 162 2 39 3 78 4 88 1
10 6 15 11 12 6 -4 7 -11 4 -17z m-5387 -1340 c-2 -13 15 -158 33 -296 12 -90
13 -152 1 -152 -5 0 -23 3 -40 6 -25 5 -29 9 -20 20 9 11 8 14 -5 14 -18 0
-20 14 -16 110 1 36 7 71 12 78 6 6 8 27 4 44 -7 37 12 188 24 188 4 0 7 -6 7
-12z m-122 -35 c4 -10 11 -61 16 -113 4 -52 11 -121 15 -153 6 -47 4 -61 -11
-77 -20 -22 -35 -18 -35 10 0 10 -10 22 -21 25 -12 4 -37 23 -55 42 -32 33
-34 39 -34 105 0 88 10 108 55 108 33 0 35 2 35 35 0 38 22 49 35 18z m8085
-392 c-22 -7 -23 -9 -8 -16 10 -4 15 -11 13 -16 -6 -9 24 -43 46 -52 15 -6
-95 -10 -194 -7 -32 1 -77 8 -100 16 -55 20 -185 55 -217 59 -40 4 -41 5 -36
13 3 5 121 9 263 10 142 0 247 -3 233 -7z m-960 -40 c0 -27 -1 -28 -45 -24
-38 4 -45 2 -45 -12 0 -14 -3 -15 -14 -6 -7 6 -46 13 -87 16 -41 3 -101 8
-134 11 -107 10 -114 10 -109 2 3 -4 -7 -8 -23 -9 l-28 -1 30 -9 c19 -5 31 -5
33 1 2 6 18 10 35 10 l30 0 -23 -24 c-12 -14 -34 -25 -49 -25 -14 -1 -55 -1
-90 -1 -36 -1 -71 -6 -78 -12 -9 -8 -13 -7 -13 2 0 9 -11 11 -37 6 -21 -3
-218 -8 -438 -11 -220 -3 -527 -9 -683 -13 l-283 -7 2 46 c1 25 0 50 -3 55 -4
5 27 11 70 13 180 8 937 18 1440 19 l542 1 0 -28z m714 -443 c-5 -8 0 -9 17
-4 41 13 129 17 129 7 0 -13 -21 -18 -104 -26 -47 -5 -66 -4 -62 4 5 7 -2 7
-21 1 -51 -16 -262 -43 -292 -37 -16 4 -31 2 -33 -4 -4 -12 -415 -38 -466 -29
l-37 6 50 7 c28 4 77 9 110 11 33 1 71 8 84 15 19 11 25 11 32 0 6 -10 13 -11
36 0 15 7 138 22 272 32 135 11 247 22 250 24 10 11 42 5 35 -7z m4460 -565
c21 -130 23 -172 12 -286 -8 -83 -7 -87 10 -81 19 5 19 5 0 -10 -11 -9 -18
-26 -16 -41 1 -14 3 -43 3 -65 1 -26 7 -42 17 -44 8 -2 28 -7 44 -11 18 -4 25
-10 20 -15 -10 -10 -32 -10 -209 -7 l-99 2 2 50 c2 28 9 55 15 60 18 15 21 32
23 120 1 48 8 95 18 117 9 21 16 45 16 53 0 9 14 33 30 54 21 26 35 59 45 112
20 94 22 99 38 99 9 0 19 -32 31 -107z"/>
<path d="M15646 6868 c-9 -42 -13 -363 -6 -393 l8 -30 2 35 c2 27 4 22 10 -24
4 -32 14 -62 21 -67 8 -5 9 -9 4 -9 -6 0 -16 5 -23 12 -16 16 -22 -5 -19 -67
1 -32 6 -50 15 -50 6 0 12 -3 12 -7 0 -5 0 -20 -1 -35 l-1 -28 -8 25 c-9 28
-10 27 -15 -11 -3 -22 0 -26 18 -24 18 2 22 -3 24 -25 1 -17 -4 -30 -12 -34
-10 -4 -15 1 -15 16 0 17 -3 19 -12 10 -8 -8 -8 -15 0 -25 8 -9 8 -17 1 -24
-8 -8 -8 -13 0 -17 6 -4 11 0 11 8 0 23 17 20 23 -4 4 -16 0 -20 -21 -21 -24
0 -25 -1 -7 -8 l20 -8 -20 -6 c-11 -4 -3 -4 18 -1 20 3 37 1 37 -5 0 -5 -30
-33 -66 -63 l-66 -53 87 -3 c48 -2 90 -1 92 2 3 3 0 76 -6 163 -7 87 -14 291
-18 453 -3 162 -10 303 -15 313 -7 14 -13 15 -28 7 -16 -9 -20 -7 -20 5 0 23
-19 18 -24 -7z"/>
<path d="M16242 12960 c-15 -15 -33 -35 -39 -43 -22 -28 -13 -115 9 -101 7 5
9 -5 6 -25 -3 -20 0 -31 7 -31 7 0 44 21 83 48 63 41 72 51 72 78 0 17 -10 46
-23 65 -30 45 -76 49 -115 9z"/>
<path d="M0 5805 c0 -217 1 -235 18 -236 39 -1 290 2 308 5 11 2 20 12 22 24
2 12 8 22 13 22 5 0 9 12 9 28 0 15 7 38 16 50 8 12 12 22 7 23 -4 0 3 5 17
10 20 8 22 12 10 19 -10 6 25 10 100 10 109 0 200 3 370 11 41 2 -62 6 -229 9
l-304 5 3 95 c1 52 3 106 4 120 l1 25 170 3 c290 5 207 10 -172 11 l-363 1 0
-235z"/>
<path d="M51 5489 l-51 -29 0 -266 c0 -255 1 -264 19 -255 33 18 290 30 518
24 123 -3 223 -3 223 0 0 3 -8 25 -19 49 -88 204 -281 386 -487 459 -139 49
-147 50 -203 18z"/>
<path d="M21408 3843 c34 -13 -1 -21 -130 -27 -79 -4 -159 -8 -178 -8 -29 0
-31 -1 -14 -8 12 -5 25 -13 29 -19 8 -14 289 -15 314 -2 31 17 12 72 -24 70
-5 0 -4 -3 3 -6z"/>
<path d="M15860 3608 c-152 -8 -228 -9 -260 -3 -13 3 -34 -2 -47 -10 -12 -8
-39 -15 -60 -14 -33 0 -35 1 -15 9 39 16 24 20 -20 5 -76 -24 -148 -33 -148
-18 0 7 -5 13 -11 13 -5 0 -8 -4 -5 -9 3 -5 -13 -11 -35 -15 -30 -5 -44 -2
-56 9 -20 20 -77 16 -81 -6 -2 -11 5 -15 27 -13 16 1 35 5 42 9 8 5 10 4 5 -4
-6 -8 17 -11 89 -10 52 1 98 5 100 9 3 5 33 7 67 5 42 -2 74 2 97 13 31 14 35
14 46 -1 7 -9 18 -17 26 -18 8 0 5 -4 -6 -8 -14 -6 -6 -10 34 -15 29 -4 56 -5
59 -1 3 3 -3 5 -13 5 -12 0 -15 3 -9 9 5 6 35 7 75 2 36 -5 167 -7 290 -4 123
3 289 6 369 8 202 4 186 1 167 23 -13 15 -14 21 -4 31 10 11 7 12 -13 8 -14
-4 -105 -7 -203 -8 -97 -2 -171 -6 -165 -11 10 -6 10 -8 1 -8 -6 0 -15 5 -18
10 -3 6 -13 10 -21 10 -8 0 -12 -4 -9 -10 3 -5 1 -10 -4 -10 -6 0 -11 4 -11 9
0 5 -15 8 -32 7 -18 -1 -53 1 -78 4 -25 3 -101 2 -170 -2z"/>
<path d="M14305 3603 c-30 -7 -41 -21 -22 -29 29 -11 18 -24 -20 -24 -20 0
-33 -3 -29 -7 4 -4 -8 -13 -26 -20 -33 -13 -33 -13 12 -6 25 3 74 6 109 5 35
-1 73 4 85 10 11 7 33 12 49 11 22 0 25 2 16 13 -6 8 -10 14 -8 15 2 0 12 2
22 4 30 6 33 15 4 15 -14 0 -28 4 -31 8 -5 9 -127 12 -161 5z"/>
<path d="M5149 3256 c-21 -28 -24 -125 -5 -151 18 -24 10 -51 -10 -34 -17 14
-18 5 -2 -24 11 -20 14 -39 20 -112 1 -11 9 -25 17 -31 11 -9 17 -43 22 -132
3 -66 9 -124 13 -130 5 -9 21 -184 32 -357 2 -33 9 -81 15 -107 6 -26 8 -52 4
-58 -11 -17 16 -71 50 -102 29 -26 29 -27 8 -28 -50 0 -16 -27 72 -56 47 -16
202 -34 299 -35 106 -1 122 1 133 18 13 16 11 18 -12 21 -14 2 -23 7 -20 12 7
12 -43 26 -155 45 -100 17 -122 27 -113 51 4 10 -3 14 -25 14 -16 0 -36 7 -43
16 -19 23 -16 143 4 224 9 36 18 86 20 111 3 25 10 55 16 67 6 11 11 32 11 46
0 14 5 28 10 31 6 4 10 14 9 23 -1 10 1 26 5 37 20 54 27 75 41 130 l15 60 -5
-55 -5 -55 17 30 c13 22 18 52 18 108 -1 83 -12 105 -46 87 -12 -7 -22 -4 -35
12 -11 12 -14 18 -8 15 7 -4 23 2 35 13 l24 20 -42 -6 c-35 -5 -43 -4 -43 9 0
9 8 20 18 26 13 7 14 13 5 22 -9 9 -7 16 8 33 25 26 6 35 -22 10 -17 -15 -19
-15 -19 -1 0 9 5 19 10 22 6 3 10 18 10 33 0 21 -2 24 -10 12 -7 -11 -10 -4
-10 28 0 23 -4 42 -10 42 -5 0 -10 -18 -10 -40 0 -22 -4 -40 -10 -40 -5 0 -10
25 -10 55 0 30 -4 55 -10 55 -19 0 -17 -152 2 -198 18 -43 37 -116 32 -124 -3
-4 2 -5 11 -1 10 3 21 0 26 -8 12 -20 11 -69 -2 -69 -6 0 -8 -7 -5 -16 8 -20
-16 -94 -30 -94 -10 0 -7 48 8 110 1 8 -4 15 -12 15 -8 0 -14 -7 -12 -15 6
-24 -9 -100 -19 -100 -5 0 -9 41 -9 90 0 50 -4 90 -9 90 -10 0 -24 -142 -24
-240 l0 -65 -7 50 c-4 28 -8 104 -9 170 -2 146 -12 195 -23 120 -4 -27 -11
-87 -14 -133 -10 -122 -23 -80 -25 78 l-2 135 -9 -105 c-5 -58 -8 -151 -6
-207 2 -64 0 -104 -7 -106 -6 -3 -2 -13 8 -24 9 -11 17 -35 16 -54 0 -33 -1
-32 -18 17 -10 30 -16 76 -15 115 1 35 -2 53 -5 39 -6 -22 -9 -19 -29 29 -12
29 -26 50 -32 46 -7 -4 -10 32 -11 107 0 62 -2 127 -4 143 -29 245 -29 244
-46 221z"/>
<path d="M10555 3259 c-49 -15 -201 -29 -337 -32 -71 -1 -128 -5 -128 -9 0 -4
-7 -14 -16 -23 -9 -9 -15 -18 -13 -20 2 -2 78 6 169 16 91 11 194 22 230 25
36 2 86 9 112 15 26 6 52 8 58 4 5 -3 10 -2 10 3 0 5 -8 12 -17 16 -10 3 -22
8 -28 10 -5 2 -23 0 -40 -5z"/>
<path d="M9185 3060 c-3 -5 -1 -10 5 -10 6 0 8 -4 5 -10 -3 -5 2 -10 13 -10
10 0 22 -3 26 -7 10 -10 80 -33 85 -28 2 3 -2 5 -9 5 -11 0 -11 3 -2 12 9 9
15 8 26 -7 9 -13 24 -18 50 -17 20 1 36 -2 36 -6 0 -11 82 -32 94 -24 5 3 1 9
-10 14 -15 7 -14 7 6 3 14 -2 33 -5 44 -5 12 0 16 -5 12 -16 -4 -10 -1 -14 6
-12 7 3 14 24 16 47 2 29 0 41 -7 36 -6 -3 -11 -1 -11 4 0 6 -12 11 -27 10
-16 0 -22 -3 -15 -6 6 -2 12 -9 12 -14 0 -12 -27 -12 -32 1 -1 5 -23 11 -48
11 -25 1 -56 6 -70 11 -14 6 -60 11 -102 13 -43 2 -82 6 -87 9 -5 4 -12 2 -16
-4z"/>
<path d="M9831 2652 c-6 -49 -11 -98 -11 -110 0 -16 -6 -22 -21 -22 -21 0 -22
-3 -15 -61 3 -34 11 -68 17 -75 9 -12 0 -14 -51 -14 l-62 0 17 26 c14 22 45
106 45 126 0 3 -33 5 -72 5 -67 -2 -73 -4 -73 -23 0 -11 -6 -28 -12 -36 -7 -8
-10 -18 -7 -21 12 -11 -25 -55 -48 -59 -17 -2 -7 -9 37 -25 33 -12 76 -24 95
-28 19 -4 44 -13 55 -20 63 -40 454 -75 615 -56 55 6 55 6 25 18 -16 6 -55 18
-85 27 -48 13 -94 21 -267 43 -24 3 -43 10 -43 14 0 5 5 9 10 9 21 0 9 18 -15
24 -14 4 -34 21 -45 38 -18 30 -18 34 -3 50 21 23 18 25 -37 30 -33 3 -44 8
-41 19 6 24 14 209 9 209 -3 0 -10 -40 -17 -88z"/>
<path d="M103 2136 c-5 -9 -31 -35 -59 -58 -27 -23 -40 -38 -29 -34 11 4 117
9 235 12 118 2 232 6 253 9 21 3 36 2 34 -2 -7 -10 146 -3 153 7 3 4 12 9 20
12 8 3 -18 6 -59 7 -41 0 -78 5 -81 11 -3 5 -35 13 -71 16 -49 4 -61 3 -49 -6
12 -9 7 -10 -20 -4 -47 9 -73 23 -42 24 12 0 22 4 22 8 0 5 -13 7 -30 4 -16
-2 -27 -8 -24 -13 3 -5 0 -9 -5 -9 -6 0 -11 4 -11 9 0 6 -8 9 -17 9 -10 -1
-61 2 -114 7 -84 6 -98 5 -106 -9z"/>
<path d="M1279 2116 c-5 -5 -263 -17 -369 -17 -35 0 -71 -4 -80 -9 -12 -7 -9
-9 10 -10 15 0 30 -4 35 -9 17 -15 86 -24 83 -9 -2 8 8 11 33 9 21 -1 40 3 44
8 3 6 11 8 18 4 16 -9 58 -10 63 -1 3 4 10 8 15 8 6 0 7 -4 4 -10 -3 -6 5 -10
19 -10 20 0 24 -4 19 -17 -6 -15 -4 -16 8 -6 20 17 74 20 91 6 10 -9 18 -8 32
3 25 18 50 19 40 2 -6 -10 -5 -10 8 0 18 14 133 11 149 -5 7 -7 24 -7 52 0 66
15 67 16 67 27 0 14 -67 12 -73 -2 -4 -8 -6 -9 -6 -2 -1 8 -20 10 -59 7 -45
-4 -61 -1 -71 11 -15 17 -36 22 -26 6 3 -5 1 -10 -4 -10 -6 0 -11 5 -11 11 0
12 -43 1 -48 -12 -2 -5 -10 -9 -18 -9 -9 0 -12 -4 -9 -10 10 -16 -15 -12 -31
5 -14 13 -12 15 16 15 20 0 30 4 28 12 -5 13 -22 21 -29 14z"/>
<path d="M2005 2102 c-54 -2 -75 -6 -65 -12 9 -6 10 -10 3 -10 -6 0 -15 5 -18
10 -10 15 -23 12 -28 -7 -4 -17 -5 -17 -6 0 -1 13 -7 17 -18 13 -10 -3 -69 -6
-130 -8 -78 -1 -113 -6 -113 -14 0 -18 78 -26 137 -13 42 10 56 10 62 1 9 -14
83 -12 93 3 5 6 8 6 8 -1 0 -6 14 -11 30 -12 17 0 28 4 25 9 -4 5 0 9 7 10 14
1 42 5 101 15 24 4 43 2 52 -6 9 -8 15 -8 15 -2 0 10 -26 21 -60 26 -8 1 -51
0 -95 -2z"/>
<path d="M22463 2053 c-10 -3 -9 -8 2 -20 21 -21 10 -33 -31 -33 -32 0 -39 7
-35 37 1 9 -6 9 -31 -1 -18 -8 -45 -12 -61 -9 -17 3 -27 1 -27 -6 0 -7 8 -11
18 -10 9 1 25 1 36 0 15 -1 16 -4 6 -16 -10 -12 -10 -15 2 -15 8 0 15 -7 15
-15 0 -8 -7 -15 -16 -15 -9 0 -23 -4 -31 -10 -11 -7 -9 -11 14 -20 23 -8 38
-7 73 6 33 13 47 14 55 6 18 -18 31 -14 25 7 -3 14 2 21 17 25 30 8 38 7 31
-3 -3 -6 3 -10 12 -9 10 0 40 -3 66 -7 47 -8 49 -7 45 16 -3 23 -7 24 -71 25
-77 2 -98 13 -79 44 6 11 12 22 12 25 0 6 -31 5 -47 -2z"/>
<path d="M22130 1378 c-14 -5 -149 -13 -300 -18 -259 -8 -252 -8 120 -4 217 3
445 7 505 11 217 11 196 20 -50 20 -138 0 -262 -4 -275 -9z"/>
<path d="M11617 1299 c-104 -4 -194 -10 -200 -13 -7 -3 185 -4 426 -3 241 1
443 5 449 8 18 11 -97 22 -165 16 -103 -10 -297 -13 -297 -4 0 4 -6 6 -12 5
-7 0 -98 -5 -201 -9z"/>
<path d="M22435 722 c-2 -2 -336 -6 -742 -8 -762 -3 -976 -7 -1488 -26 -165
-6 -628 -12 -1030 -13 -1094 -2 -3285 -24 -3660 -35 -181 -6 -661 -13 -1065
-15 -404 -2 -888 -7 -1075 -10 -1102 -16 -1159 -18 -1173 -32 -11 -11 -11 -13
2 -13 8 0 18 4 21 10 10 16 45 12 45 -5 0 -8 -6 -15 -12 -16 -7 0 -25 -2 -40
-4 -14 -2 -35 3 -45 10 -10 8 -13 15 -7 15 7 0 15 7 18 16 5 14 -61 15 -712
10 -394 -3 -732 -5 -749 -5 -18 0 -33 -5 -33 -11 0 -5 -5 -10 -11 -10 -5 0 -7
4 -4 10 4 6 -7 10 -24 10 -17 0 -31 -4 -31 -10 0 -14 -23 -12 -56 5 -21 11
-56 15 -119 14 -49 0 -481 3 -958 7 -744 6 -870 5 -879 -7 -7 -10 -11 -11 -15
-2 -3 10 -140 13 -600 13 -327 0 -599 2 -603 5 -4 3 -556 8 -1227 11 -2195 11
-2416 13 -2424 25 -5 8 -9 8 -14 -1 -5 -8 -47 -10 -154 -6 -80 3 -276 8 -436
11 -159 3 -390 10 -513 16 -191 8 -825 14 -2199 19 -177 0 -324 4 -327 8 -2 4
-25 6 -50 4 l-46 -4 0 -90 c0 -49 4 -87 9 -84 5 3 14 -1 21 -10 9 -10 15 -12
20 -4 5 8 73 11 226 10 345 -2 435 -6 445 -21 7 -12 10 -12 18 -1 6 10 53 13
207 13 320 -2 1021 -10 1249 -16 116 -3 442 -7 725 -10 283 -3 686 -7 895 -10
597 -7 1514 -15 2455 -21 1450 -9 8340 -11 8740 -3 206 4 697 10 1090 13 393
2 877 7 1075 10 839 13 1151 17 1695 21 530 4 743 7 1390 20 129 2 440 7 690
11 405 5 830 12 885 13 98 3 395 -6 401 -11 4 -5 12 -8 18 -8 6 0 4 5 -4 10
-11 7 0 10 38 10 33 0 51 -4 47 -10 -3 -5 1 -10 9 -10 9 0 16 5 16 10 0 6 9
10 21 10 11 0 17 -4 14 -10 -4 -7 3 -7 19 0 16 6 26 6 26 0 0 -5 13 -4 31 2
23 8 33 8 38 -1 4 -6 27 -10 52 -8 30 1 48 -3 56 -13 10 -13 11 -12 10 5 -1
11 3 19 11 18 9 -2 12 21 12 93 l0 96 -106 -3 c-58 -2 -107 -5 -109 -7z"/>
</g>
</svg>
